<?xml version="1.0" encoding="UTF-8" standalone="no"?>
<svg width="148px" height="37px" viewBox="0 0 148 37" version="1.1" xmlns="http://www.w3.org/2000/svg" xmlns:xlink="http://www.w3.org/1999/xlink" xmlns:sketch="http://www.bohemiancoding.com/sketch/ns">
    <!-- Generator: Sketch 3.1.1 (8761) - http://www.bohemiancoding.com/sketch -->
    <title>Artboard 2</title>
    <desc>Created with Sketch.</desc>
    <defs></defs>
    <g id="Page-1" stroke="none" stroke-width="1" fill="none" fill-rule="evenodd" sketch:type="MSPage">
        <g id="Artboard-2" sketch:type="MSArtboardGroup">
            <g id="Group" sketch:type="MSLayerGroup" transform="translate(3.000000, 4.000000)">
                <rect id="Rectangle-2" fill="#9AB270" sketch:type="MSShapeGroup" x="14" y="20.6248154" width="9" height="8.37518464"></rect>
                <rect id="Rectangle-3" fill="#9AB270" sketch:type="MSShapeGroup" x="0" y="20.6248154" width="9" height="8.37518464"></rect>
                <path d="M29.064,-0.136 L37.224,-0.136 C41.3840208,-0.136 44.767987,1.23998624 47.376,3.992 C49.984013,6.74401376 51.288,10.215979 51.288,14.408 C51.288,18.600021 49.9680132,22.0799862 47.328,24.848 C44.6879868,27.6160138 41.3040206,29 37.176,29 L29.064,29 L29.064,-0.136 Z M34.008,24.536 L35.688,24.536 C42.6640349,24.536 46.152,21.1680337 46.152,14.432 C46.152,7.69596632 42.6640349,4.328 35.688,4.328 L34.008,4.328 L34.008,24.536 Z" id="D" fill="#F38630" sketch:type="MSShapeGroup"></path>
                <path d="M11.5,7.5 L4.5,21.5" id="Line" stroke="#9AB270" stroke-width="2" stroke-linecap="square" sketch:type="MSShapeGroup"></path>
                <path d="M62.968,29 L58.504,29 L58.504,4.04 L52.024,4.04 L52.024,-0.136 L69.448,-0.136 L69.448,4.04 L62.968,4.04 L62.968,29 Z M76.024,12.008 C77.2080059,10.2799914 79.0639874,9.416 81.592,9.416 C82.392004,9.416 83.1279966,9.5759984 83.8,9.896 L83.224,14.12 C82.5199965,13.6719978 81.7520042,13.448 80.92,13.448 C77.6559837,13.448 76.024,15.7839766 76.024,20.456 L76.024,29 L71.368,29 L71.368,10.04 L76.024,10.04 L76.024,12.008 Z M103.48,29 L98.92,29 L98.92,27.272 C97.5759933,28.8400078 95.5760133,29.624 92.92,29.624 C90.2639867,29.624 88.1440079,28.6000102 86.56,26.552 C84.9759921,24.5039898 84.184,22.1040138 84.184,19.352 C84.184,16.5999862 84.9919919,14.2560097 86.608,12.32 C88.2240081,10.3839903 90.2959874,9.416 92.824,9.416 C95.5120134,9.416 97.5439931,10.215992 98.92,11.816 L98.92,10.04 L103.48,10.04 L103.48,29 Z M99.448,19.496 C99.448,17.7359912 98.952005,16.2880057 97.96,15.152 C96.967995,14.0159943 95.6960078,13.448 94.144,13.448 C92.5919922,13.448 91.3280049,13.9999945 90.352,15.104 C89.3759951,16.2080055 88.888,17.6719909 88.888,19.496 C88.888,21.3200091 89.383995,22.7919944 90.376,23.912 C91.368005,25.0320056 92.6479922,25.592 94.216,25.592 C95.7840078,25.592 97.0479952,25.0480054 98.008,23.96 C98.9680048,22.8719946 99.448,21.3840094 99.448,19.496 L99.448,19.496 Z M120.28,14.984 C119.095994,13.7999941 117.768007,13.208 116.296,13.208 C114.567991,13.208 113.208005,13.8319938 112.216,15.08 C111.223995,16.3280062 110.728,17.855991 110.728,19.664 C110.728,21.472009 111.287994,22.9519942 112.408,24.104 C113.528006,25.2560058 114.887992,25.832 116.488,25.832 C117.864007,25.832 119.127994,25.2240061 120.28,24.008 L120.28,28.472 C118.935993,29.2400038 117.384009,29.624 115.624,29.624 C112.871986,29.624 110.584009,28.6480098 108.76,26.696 C106.935991,24.7439902 106.024,22.3600141 106.024,19.544 C106.024,16.7279859 106.959991,14.3360098 108.832,12.368 C110.704009,10.3999902 113.047986,9.416 115.864,9.416 C117.528008,9.416 118.999994,9.815996 120.28,10.616 L120.28,14.984 Z M127.24,19.976 C127.24,21.8000091 127.639996,23.3039941 128.44,24.488 C129.240004,25.6720059 130.343993,26.264 131.752,26.264 C133.960011,26.264 135.367997,25.1760109 135.976,23 L140.392,23.72 C138.951993,27.6560197 136.072022,29.624 131.752,29.624 C128.871986,29.624 126.576009,28.7040092 124.864,26.864 C123.151991,25.0239908 122.296,22.6320147 122.296,19.688 C122.296,16.5839845 123.119992,14.0960094 124.768,12.224 C126.416008,10.3519906 128.655986,9.416 131.488,9.416 C134.320014,9.416 136.527992,10.3039911 138.112,12.08 C139.696008,13.8560089 140.488,16.2799846 140.488,19.352 L140.488,19.976 L127.24,19.976 Z M136.168,17.384 C136.168,16.0719934 135.760004,14.920005 134.944,13.928 C134.127996,12.935995 133.072006,12.44 131.776,12.44 C130.479994,12.44 129.424004,12.9599948 128.608,14 C127.791996,15.0400052 127.384,16.1679939 127.384,17.384 L136.168,17.384 Z" id="Trace" fill="#9AB270" sketch:type="MSShapeGroup"></path>
                <path d="M18.5,7.5 L11.5,21.5" id="Line-2" stroke="#9AB270" stroke-width="2" stroke-linecap="square" sketch:type="MSShapeGroup" transform="translate(15.000000, 14.500000) scale(1, -1) translate(-15.000000, -14.500000) "></path>
                <rect id="Rectangle-1" stroke="#F38630" fill="#F38630" sketch:type="MSShapeGroup" x="7" y="0.0132939438" width="9" height="8.37518464"></rect>
            </g>
        </g>
    </g>
</svg>