<?xml version="1.0" encoding="UTF-8" standalone="no"?>
<svg width="1000px" height="400px" viewBox="18.609 0.5 916.63 392" version="1.1" xmlns="http://www.w3.org/2000/svg" xmlns:xlink="http://www.w3.org/1999/xlink" xmlns:sketch="http://www.bohemiancoding.com/sketch/ns">
    <!-- Generator: Sketch 3.0 (7574) - http://www.bohemiancoding.com/sketch -->
    <title>friends 2</title>
    <description>Created with Sketch.</description>
    <defs>
        <linearGradient x1="50.0574106%" y1="0.0326221248%" x2="50.0574106%" y2="100.034787%" id="linearGradient-1">
            <stop stop-color="#E0EBE8" offset="0%"></stop>
            <stop stop-color="#FFFFFF" offset="100%"></stop>
        </linearGradient>
        <linearGradient x1="50.0342373%" y1="0.0272989548%" x2="50.0342373%" y2="100.028464%" id="linearGradient-2">
            <stop stop-color="#E0EBE8" offset="0%"></stop>
            <stop stop-color="#FFFFFF" offset="100%"></stop>
        </linearGradient>
    </defs>
    <g id="Page-1" stroke="none" stroke-width="1" fill="none" fill-rule="evenodd" sketch:type="MSPage">
        <g id="friends" sketch:type="MSLayerGroup">
            <g id="brownHouse" transform="translate(465.000000, 7.000000)" sketch:type="MSShapeGroup">
                <rect id="rectangle15" fill="#CA8A65" x="5" y="31" width="26.519" height="26.519"></rect>
                <rect id="rectangle16" fill="#C6F7FB" x="8" y="35" width="6.918" height="6.918"></rect>
                <rect id="rectangle17" fill="#C6F7FB" x="22" y="35" width="6.918" height="6.918"></rect>
                <rect id="rectangle18" fill="#C6F7FB" x="8" y="47" width="6.918" height="6.918"></rect>
                <rect id="rectangle19" fill="#70595E" x="22" y="47" width="6.918" height="10.377"></rect>
                <path d="M18.289,17.459 L36.089,31.768 L0.485,31.768 L18.289,17.459 L18.289,17.459 Z" id="polygon2" fill="#70595E"></path>
                <path d="M23.49,10.449 C23.594,4.096 24.977,-0.689 26.556,-0.251 C28.147,0.199 29.346,5.71 29.228,12.063 C29.124,18.416 27.741,23.201 26.161,22.763 C24.654,22.337 23.478,17.31 23.478,11.256" id="oval10" fill="url(#linearGradient-1)"></path>
                <rect id="rectangle20" fill="#70595E" x="22" y="18" width="7.494" height="10.377"></rect>
            </g>
            <g id="hills" transform="translate(0.000000, 55.000000)" sketch:type="MSShapeGroup">
                <path d="M240.584,206.537 C240.584,92.553 338.15,0.152 458.5,0.152 C578.849,0.152 676.415,92.553 676.415,206.537 L458.5,206.537 L240.584,206.537 L240.584,206.537 Z" id="backHill" fill="#3E9C87"></path>
                <path d="M380.096,381.793 C380.096,239.156 500.112,123.522 648.167,123.522 C796.22,123.522 916.238,239.156 916.238,381.793 L648.167,381.793 L380.096,381.793 L380.096,381.793 Z" id="whiteHill" fill="#D7D7D7"></path>
                <path d="M-0.391,364.498 C-0.391,214.851 130.981,93.544 293.046,93.544 C455.111,93.544 586.483,214.85 586.483,364.498 L293.045,364.498 L-0.391,364.498 L-0.391,364.498 Z" id="leftHill" fill="#4AB19A"></path>
            </g>
            <g id="yellowTree" transform="translate(57.000000, 193.000000)" sketch:type="MSShapeGroup">
                <ellipse id="oval" fill="#439F8A" cx="22.089" cy="112.749" rx="19.089" ry="8.749"></ellipse>
                <path d="M0.188,88.668 L21.472,-0.415 L46.322,88.668 L0.188,88.668 L0.188,88.668 Z" id="bezier" fill="#F6D546"></path>
                <rect id="rectangle" fill="#AF946C" x="22" y="51" width="3.184" height="58.858"></rect>
                <path d="M22.459,66.143 L31.573,56.852 L33.594,58.92 L23.477,69.229 L22.792,69.579 L22.459,66.143 L22.459,66.143 Z" id="bezier2" fill="#AF946C"></path>
                <path d="M22.459,78.869 L31.573,69.578 L33.594,71.646 L23.477,81.951 L22.792,82.303 L22.459,78.869 L22.459,78.869 Z" id="bezier3" fill="#AF946C"></path>
                <path d="M24.049,72.505 L14.934,63.212 L12.914,65.28 L23.029,75.588 L23.715,75.94 L24.049,72.505 L24.049,72.505 Z" id="bezier4" fill="#AF946C"></path>
            </g>
            <g id="yellowTree2" transform="translate(202.000000, 120.000000)" sketch:type="MSShapeGroup">
                <ellipse id="oval3" fill="#439F8A" cx="24.231" cy="99.334" rx="16.231" ry="6.334"></ellipse>
                <path d="M0.446,80.661 L21.635,0.135 L46.371,80.661 L0.446,80.661 L0.446,80.661 Z" id="bezier9" fill="#F4A0A0"></path>
                <rect id="rectangle3" fill="#AF946C" x="22" y="52" width="3.167" height="47.509"></rect>
                <path d="M22.616,60.297 L31.69,51.904 L33.702,53.773 L23.63,63.101 L22.949,63.403 L22.616,60.297 L22.616,60.297 Z" id="bezier10" fill="#AF946C"></path>
                <path d="M22.616,71.795 L31.69,63.402 L33.702,65.269 L23.63,74.597 L22.949,74.901 L22.616,71.795 L22.616,71.795 Z" id="bezier11" fill="#AF946C"></path>
                <path d="M24.2,66.045 L15.125,57.65 L13.116,59.519 L23.185,68.847 L23.867,69.149 L24.2,66.045 L24.2,66.045 Z" id="bezier12" fill="#AF946C"></path>
            </g>
            <g id="yellowTree3" transform="translate(609.000000, 119.000000)" sketch:type="MSShapeGroup">
                <ellipse id="oval4" fill="#E0EBE8" cx="22.269" cy="100.425" rx="17.269" ry="6.425"></ellipse>
                <path d="M-0.471,82.062 L21.025,0.379 L46.117,82.062 L-0.471,82.062 L-0.471,82.062 Z" id="bezier13" fill="#F4A0A0"></path>
                <rect id="rectangle4" fill="#AF946C" x="21" y="53" width="3.21" height="48.191"></rect>
                <path d="M22.014,61.402 L31.217,52.888 L33.259,54.786 L23.045,64.246 L22.352,64.554 L22.014,61.402 L22.014,61.402 Z" id="bezier14" fill="#AF946C"></path>
                <path d="M22.014,73.066 L31.217,64.551 L33.259,66.449 L23.045,75.909 L22.352,76.216 L22.014,73.066 L22.014,73.066 Z" id="bezier15" fill="#AF946C"></path>
                <path d="M23.623,67.235 L14.418,58.72 L12.378,60.617 L22.592,70.077 L23.284,70.385 L23.623,67.235 L23.623,67.235 Z" id="bezier16" fill="#AF946C"></path>
            </g>
            <g id="yellowTree4" transform="translate(740.000000, 127.000000)" sketch:type="MSShapeGroup">
                <ellipse id="oval5" fill="#E0EBE8" cx="24.806" cy="116.723" rx="16.806" ry="6.723"></ellipse>
                <path d="M0.471,94.502 L22.958,0.387 L49.209,94.502 L0.471,94.502 L0.471,94.502 Z" id="bezier17" fill="#F6D546"></path>
                <rect id="rectangle5" fill="#AF946C" x="23" y="55" width="3.361" height="62.186"></rect>
                <path d="M23.999,70.704 L33.629,60.89 L35.767,63.075 L25.078,73.965 L24.356,74.334 L23.999,70.704 L23.999,70.704 Z" id="bezier18" fill="#AF946C"></path>
                <path d="M23.999,84.147 L33.629,74.333 L35.767,76.518 L25.078,87.408 L24.356,87.777 L23.999,84.147 L23.999,84.147 Z" id="bezier19" fill="#AF946C"></path>
                <path d="M25.68,77.426 L16.048,67.612 L13.913,69.797 L24.601,80.687 L25.323,81.056 L25.68,77.426 L25.68,77.426 Z" id="bezier20" fill="#AF946C"></path>
            </g>
            <g id="darkGreenTree2" transform="translate(676.000000, 202.000000)" sketch:type="MSShapeGroup">
                <ellipse id="oval6" fill="#E0EBE8" cx="26.902" cy="114.3" rx="18.902" ry="6.3"></ellipse>
                <path d="M-0.301,98.006 L25.498,0.328 L55.61,98.006 L-0.301,98.006 L-0.301,98.006 Z" id="bezier21" fill="#217D68"></path>
                <rect id="rectangle6" fill="#AF946C" x="26" y="63" width="3.15" height="51.973"></rect>
                <path d="M26.477,73.188 L35.5,64.115 L37.498,66.13 L27.48,76.229 L26.803,76.56 L26.477,73.188 L26.477,73.188 Z" id="bezier22" fill="#AF946C"></path>
                <path d="M26.477,85.629 L35.5,76.559 L37.498,78.573 L27.48,88.672 L26.803,88.999 L26.477,85.629 L26.477,85.629 Z" id="bezier23" fill="#AF946C"></path>
                <path d="M28.052,79.406 L19.027,70.334 L17.027,72.35 L27.045,82.446 L27.722,82.777 L28.052,79.406 L28.052,79.406 Z" id="bezier24" fill="#AF946C"></path>
            </g>
            <g id="yellowTree5" transform="translate(123.000000, 125.000000)" sketch:type="MSShapeGroup">
                <ellipse id="oval2" fill="#439F8A" cx="25.32" cy="133.855" rx="19.32" ry="8.855"></ellipse>
                <path d="M0.031,110.907 L23.812,-0.189 L51.554,110.907 L0.031,110.907 L0.031,110.907 Z" id="bezier5" fill="#217D68"></path>
                <rect id="rectangle2" fill="#AF946C" x="23" y="73" width="3.221" height="59.573"></rect>
                <path d="M24.182,88.106 L33.407,78.703 L35.45,80.796 L25.21,91.231 L24.518,91.585 L24.182,88.106 L24.182,88.106 Z" id="bezier6" fill="#AF946C"></path>
                <path d="M24.182,100.986 L33.407,91.585 L35.45,93.676 L25.21,104.111 L24.518,104.466 L24.182,100.986 L24.182,100.986 Z" id="bezier7" fill="#AF946C"></path>
                <path d="M25.792,94.547 L16.565,85.144 L14.521,87.237 L24.762,97.671 L25.455,98.026 L25.792,94.547 L25.792,94.547 Z" id="bezier8" fill="#AF946C"></path>
            </g>
            <g id="yellowTree6" transform="translate(364.000000, 0.000000)" sketch:type="MSShapeGroup">
                <ellipse id="oval7" fill="#378C79" cx="16.433" cy="85.698" rx="12.433" ry="5.698"></ellipse>
                <path d="M0.12,71.392 L15.422,-0.093 L33.273,71.392 L0.12,71.392 L0.12,71.392 Z" id="bezier25" fill="#8FD182"></path>
                <rect id="rectangle7" fill="#AF946C" x="15" y="47" width="2.07" height="38.334"></rect>
                <path d="M15.66,56.721 L21.595,50.67 L22.911,52.016 L16.322,58.73 L15.877,58.957 L15.66,56.721 L15.66,56.721 Z" id="bezier26" fill="#AF946C"></path>
                <path d="M15.66,65.009 L21.595,58.959 L22.911,60.305 L16.322,67.019 L15.877,67.246 L15.66,65.009 L15.66,65.009 Z" id="bezier27" fill="#AF946C"></path>
                <path d="M16.697,60.866 L10.759,54.815 L9.444,56.162 L16.033,62.876 L16.478,63.103 L16.697,60.866 L16.697,60.866 Z" id="bezier28" fill="#AF946C"></path>
            </g>
            <g id="yellowTree7" transform="translate(530.000000, 17.000000)" sketch:type="MSShapeGroup">
                <ellipse id="oval8" fill="#378C79" cx="25.559" cy="106.852" rx="17.559" ry="6.852"></ellipse>
                <path d="M0.457,87.284 L23.381,0.171 L50.141,87.284 L0.457,87.284 L0.457,87.284 Z" id="bezier29" fill="#217D68"></path>
                <rect id="rectangle8" fill="#AF946C" x="24" y="56" width="3.427" height="51.395"></rect>
                <path d="M24.444,65.254 L34.259,56.174 L36.436,58.195 L25.54,68.287 L24.804,68.612 L24.444,65.254 L24.444,65.254 Z" id="bezier30" fill="#AF946C"></path>
                <path d="M24.444,77.691 L34.259,68.611 L36.436,70.632 L25.54,80.722 L24.804,81.048 L24.444,77.691 L24.444,77.691 Z" id="bezier31" fill="#AF946C"></path>
                <path d="M26.156,71.472 L16.338,62.392 L14.163,64.413 L25.055,74.503 L25.794,74.829 L26.156,71.472 L26.156,71.472 Z" id="bezier32" fill="#AF946C"></path>
            </g>
            <g id="blueHouse" transform="translate(296.000000, 98.000000)" sketch:type="MSShapeGroup">
                <rect id="rectangle9" fill="#6DA0AB" x="6" y="40" width="34.59" height="34.59"></rect>
                <rect id="rectangle10" fill="#C6F7FB" x="10" y="46" width="9.225" height="9.224"></rect>
                <rect id="rectangle11" fill="#C6F7FB" x="28" y="46" width="9.225" height="9.224"></rect>
                <rect id="rectangle12" fill="#C6F7FB" x="10" y="61" width="9.225" height="9.224"></rect>
                <rect id="rectangle13" fill="#70595E" x="28" y="61" width="9.225" height="13.836"></rect>
                <path d="M23.183,22.945 L46.15,41.531 L0.215,41.531 L23.183,22.945 L23.183,22.945 Z" id="polygon" fill="#70595E"></path>
                <path d="M30.111,13.825 C30.238,5.569 31.898,-0.657 33.8,-0.08 C35.699,0.496 37.141,7.656 37.006,15.923 C36.879,24.178 35.215,30.405 33.316,29.828 C31.506,29.276 30.099,22.748 30.099,14.873" id="oval9" fill="url(#linearGradient-2)"></path>
                <rect id="rectangle14" fill="#70595E" x="29" y="24" width="8.647" height="13.836"></rect>
            </g>
            <path d="M69.7430033,337.041361 L69.7430033,325.336891 C69.7430033,324.728863 69.8814964,324.27285 70.1584867,323.968836 C70.435477,323.664822 70.7935322,323.512818 71.2326631,323.512818 C71.6853058,323.512818 72.0518057,323.663133 72.332174,323.963769 C72.6125422,324.264405 72.7527242,324.722107 72.7527242,325.336891 L72.7527242,337.041361 C72.7527242,337.656144 72.6125422,338.115536 72.332174,338.419549 C72.0518057,338.723563 71.6853058,338.875568 71.2326631,338.875568 C70.8002881,338.875568 70.4439218,338.721874 70.1635535,338.414483 C69.8831853,338.107091 69.7430033,337.649388 69.7430033,337.041361 L69.7430033,337.041361 Z M81.1333273,336.382668 L78.7518984,326.917754 L78.7518984,337.173099 C78.7518984,337.740592 78.6252279,338.166204 78.3718831,338.449951 C78.1185384,338.733697 77.7824393,338.875568 77.363576,338.875568 C76.9582243,338.875568 76.6271921,338.735386 76.3704694,338.455018 C76.1137467,338.174649 75.9853873,337.747348 75.9853873,337.173099 L75.9853873,325.417961 C75.9853873,324.769398 76.1542813,324.331963 76.4920743,324.105641 C76.8298673,323.87932 77.2858811,323.766161 77.8601292,323.766161 L78.7924333,323.766161 C79.3531698,323.766161 79.7602043,323.816829 80.013549,323.918167 C80.2668938,324.019505 80.4543661,324.201911 80.5759716,324.465389 C80.6975771,324.728868 80.8360702,325.157858 80.991455,325.752374 L83.1499417,333.889768 L85.3084283,325.752374 C85.4638131,325.157858 85.6023062,324.728868 85.7239117,324.465389 C85.8455172,324.201911 86.0329895,324.019505 86.2863343,323.918167 C86.539679,323.816829 86.9467135,323.766161 87.50745,323.766161 L88.4397541,323.766161 C89.0140022,323.766161 89.470016,323.87932 89.807809,324.105641 C90.145602,324.331963 90.314496,324.769398 90.314496,325.417961 L90.314496,337.173099 C90.314496,337.740592 90.1878255,338.166204 89.9344807,338.449951 C89.681136,338.733697 89.3416591,338.875568 88.9160398,338.875568 C88.5174441,338.875568 88.1897897,338.733697 87.933067,338.449951 C87.6763443,338.166204 87.5479849,337.740592 87.5479849,337.173099 L87.5479849,326.917754 L85.166556,336.382668 C85.0111712,336.997451 84.8845007,337.448398 84.7865407,337.735522 C84.6885807,338.022646 84.5078642,338.284432 84.2443856,338.520887 C83.980907,338.757342 83.616096,338.875568 83.1499417,338.875568 C82.7986369,338.875568 82.5013835,338.799565 82.2581725,338.647559 C82.0149615,338.495552 81.8258003,338.301324 81.6906831,338.064869 C81.5555658,337.828413 81.4491626,337.566628 81.3714702,337.279504 C81.2937778,336.99238 81.2143977,336.693437 81.1333273,336.382668 L81.1333273,336.382668 Z" id="IM" fill="#666666" sketch:type="MSShapeGroup"></path>
            <path d="M148.410385,284.399679 C148.410385,285.298208 148.179,286.105521 147.716224,286.821642 C147.253447,287.537764 146.576183,288.098492 145.684409,288.503843 C144.792635,288.909195 143.735359,289.111868 142.512548,289.111868 C141.046526,289.111868 139.837246,288.834882 138.884669,288.280901 C138.209083,287.882305 137.660178,287.350289 137.237936,286.684837 C136.815695,286.019385 136.604578,285.372521 136.604578,284.744226 C136.604578,284.379409 136.731248,284.066955 136.984593,283.806855 C137.237938,283.546754 137.560525,283.416706 137.952365,283.416706 C138.269891,283.416706 138.538432,283.518042 138.757997,283.720718 C138.977563,283.923394 139.165035,284.224025 139.32042,284.622621 C139.509584,285.095531 139.713946,285.490743 139.933511,285.808268 C140.153077,286.125794 140.462153,286.38758 140.860749,286.593633 C141.259344,286.799687 141.782916,286.902712 142.431478,286.902712 C143.323252,286.902712 144.047807,286.694973 144.605166,286.279487 C145.162524,285.864002 145.441199,285.345497 145.441199,284.723958 C145.441199,284.23078 145.290884,283.830502 144.990248,283.52311 C144.689612,283.215718 144.301156,282.980956 143.824868,282.818815 C143.348579,282.656674 142.711849,282.484403 141.914658,282.301994 C140.847232,282.052027 139.953782,281.759841 139.234283,281.425426 C138.514784,281.091011 137.943922,280.634997 137.521681,280.057371 C137.09944,279.479745 136.888322,278.761945 136.888322,277.903951 C136.888322,277.086492 137.111262,276.360248 137.557149,275.725197 C138.003036,275.090146 138.648211,274.602042 139.492694,274.260871 C140.337176,273.9197 141.330273,273.749118 142.472013,273.749118 C143.384054,273.749118 144.172789,273.862276 144.838242,274.088598 C145.503694,274.314919 146.055977,274.61555 146.495108,274.990501 C146.934239,275.365451 147.255138,275.758974 147.457813,276.171081 C147.660489,276.583189 147.761826,276.985157 147.761826,277.376997 C147.761826,277.735057 147.635155,278.057645 147.38181,278.344769 C147.128466,278.631893 146.812634,278.775453 146.434306,278.775453 C146.089757,278.775453 145.827971,278.689317 145.648941,278.517042 C145.469911,278.344768 145.275682,278.062715 145.066251,277.670875 C144.796016,277.110139 144.47174,276.672703 144.093412,276.358556 C143.715084,276.044408 143.107065,275.887337 142.269338,275.887337 C141.492415,275.887337 140.865818,276.05792 140.38953,276.399091 C139.913241,276.740262 139.675101,277.150674 139.675101,277.63034 C139.675101,277.927598 139.75617,278.184317 139.918311,278.400504 C140.080451,278.616692 140.303391,278.802475 140.587138,278.95786 C140.870884,279.113245 141.158004,279.234848 141.448506,279.322675 C141.739008,279.410501 142.218666,279.53886 142.887497,279.707757 C143.725223,279.903677 144.483557,280.119861 145.162521,280.356316 C145.841485,280.592771 146.419103,280.879891 146.895391,281.217684 C147.371679,281.555477 147.743246,281.982779 148.010102,282.499602 C148.276959,283.016426 148.410385,283.649778 148.410385,284.399679 L148.410385,284.399679 Z M159.841244,276.323088 L153.913006,276.323088 L153.913006,280.12324 L158.868405,280.12324 C159.327804,280.12324 159.670658,280.226265 159.89698,280.432319 C160.123301,280.638373 160.23646,280.91367 160.23646,281.258219 C160.23646,281.602768 160.121612,281.876376 159.891913,282.079052 C159.662213,282.281728 159.321048,282.383064 158.868405,282.383064 L153.913006,282.383064 L153.913006,287.277661 C153.913006,287.8992 153.772824,288.36028 153.492456,288.660916 C153.212088,288.961552 152.852343,289.111868 152.413212,289.111868 C151.967326,289.111868 151.604204,288.959863 151.323835,288.655849 C151.043467,288.351836 150.903285,287.892444 150.903285,287.277661 L150.903285,275.846802 C150.903285,275.414427 150.967465,275.061438 151.095826,274.787826 C151.224188,274.514214 151.425171,274.314919 151.698784,274.189935 C151.972396,274.064952 152.322007,274.002461 152.747626,274.002461 L159.841244,274.002461 C160.32091,274.002461 160.677276,274.108864 160.910354,274.321674 C161.143431,274.534483 161.259968,274.813159 161.259968,275.157707 C161.259968,275.509012 161.143431,275.791065 160.910354,276.003875 C160.677276,276.216684 160.32091,276.323088 159.841244,276.323088 L159.841244,276.323088 Z" id="SF" fill="#666666" sketch:type="MSShapeGroup"></path>
            <path d="M205.207685,237.538051 L210.672584,245.80718 L210.672584,237.461485 C210.672584,236.919139 210.789027,236.512386 211.021917,236.241214 C211.254806,235.970041 211.569043,235.834457 211.964636,235.834457 C212.37299,235.834457 212.695202,235.970041 212.931282,236.241214 C213.167362,236.512386 213.2854,236.919139 213.2854,237.461485 L213.2854,248.496562 C213.2854,249.728004 212.774965,250.343717 211.754079,250.343717 C211.498858,250.343717 211.269162,250.307029 211.064985,250.233653 C210.860808,250.160277 210.669395,250.043834 210.49074,249.884321 C210.312085,249.724807 210.146194,249.538179 209.993061,249.324432 C209.839928,249.110684 209.686798,248.892154 209.533665,248.668835 L204.202756,240.495413 L204.202756,248.716689 C204.202756,249.252654 204.078337,249.657811 203.829497,249.932174 C203.580656,250.206537 203.261634,250.343717 202.872421,250.343717 C202.470448,250.343717 202.148236,250.204942 201.905776,249.927389 C201.663315,249.649836 201.542087,249.246273 201.542087,248.716689 L201.542087,237.892168 C201.542087,237.43277 201.59313,237.072275 201.695219,236.810673 C201.816449,236.523549 202.017433,236.289068 202.298176,236.107223 C202.57892,235.925378 202.881991,235.834457 203.207398,235.834457 C203.462619,235.834457 203.681149,235.87593 203.862994,235.958876 C204.04484,236.041823 204.20435,236.153481 204.341532,236.293853 C204.478713,236.434225 204.619083,236.616067 204.762645,236.839386 C204.906207,237.062704 205.054552,237.29559 205.207685,237.538051 Z M225.995358,245.031949 C225.995358,245.810374 225.87413,246.528174 225.63167,247.185369 C225.389209,247.842563 225.038285,248.407232 224.578887,248.879392 C224.119489,249.351551 223.570771,249.713641 222.932718,249.965672 C222.294664,250.217703 221.576865,250.343717 220.779298,250.343717 C219.988112,250.343717 219.276693,250.216108 218.645021,249.960887 C218.013348,249.705665 217.466225,249.340385 217.003637,248.865035 C216.541048,248.389686 216.190124,247.828207 215.950854,247.180583 C215.711584,246.532959 215.591951,245.816755 215.591951,245.031949 C215.591951,244.240763 215.713179,243.516584 215.955639,242.859389 C216.1981,242.202194 216.545834,241.640715 216.998851,241.174936 C217.451869,240.709157 218.000587,240.350258 218.645021,240.098227 C219.289455,239.846196 220.000873,239.720182 220.779298,239.720182 C221.570485,239.720182 222.288284,239.847791 222.932718,240.103012 C223.577151,240.358233 224.129059,240.721918 224.588458,241.194078 C225.047856,241.666237 225.397185,242.227716 225.636455,242.87853 C225.875725,243.529345 225.995358,244.247144 225.995358,245.031949 Z M223.372972,245.031949 C223.372972,243.9664 223.138491,243.136943 222.669522,242.543554 C222.200553,241.950164 221.570485,241.653474 220.779298,241.653474 C220.268856,241.653474 219.819035,241.785868 219.429822,242.05066 C219.04061,242.315452 218.740729,242.706254 218.530172,243.223077 C218.319614,243.7399 218.214337,244.342852 218.214337,245.031949 C218.214337,245.714666 218.318019,246.311237 218.525386,246.82168 C218.732754,247.332123 219.029444,247.722924 219.415466,247.994097 C219.801488,248.26527 220.256095,248.400854 220.779298,248.400854 C221.570485,248.400854 222.200553,248.102569 222.669522,247.505989 C223.138491,246.909409 223.372972,246.084737 223.372972,245.031949 Z M229.641815,241.34721 L231.756951,247.281076 L234.03479,241.0888 C234.213445,240.591118 234.388907,240.238599 234.561181,240.031231 C234.733456,239.823864 234.995054,239.720182 235.345983,239.720182 C235.677771,239.720182 235.960105,239.83184 236.192994,240.055158 C236.425884,240.278477 236.542327,240.536885 236.542327,240.830389 C236.542327,240.945239 236.52159,241.079228 236.480117,241.232361 C236.438644,241.385494 236.39079,241.529053 236.336556,241.663045 C236.282321,241.797036 236.220112,241.950166 236.149926,242.122441 L233.642389,248.343429 C233.572203,248.522084 233.481282,248.74859 233.369623,249.022953 C233.257963,249.297316 233.133545,249.531797 232.996363,249.726403 C232.859182,249.921009 232.6901,250.072545 232.489113,250.181014 C232.288127,250.289483 232.044075,250.343717 231.756951,250.343717 C231.38688,250.343717 231.091785,250.259176 230.871656,250.090092 C230.651528,249.921008 230.488827,249.735975 230.383548,249.534988 C230.278269,249.334001 230.101212,248.936819 229.852371,248.343429 L227.363976,242.189436 C227.306551,242.036303 227.247532,241.883173 227.186917,241.73004 C227.126302,241.576907 227.075258,241.420586 227.033785,241.261073 C226.992311,241.10156 226.971575,240.96438 226.971575,240.849531 C226.971575,240.670876 227.025809,240.493819 227.134278,240.318354 C227.242747,240.142889 227.392687,239.999329 227.584103,239.88767 C227.775519,239.776011 227.982883,239.720182 228.206202,239.720182 C228.640078,239.720182 228.938364,239.844601 229.101067,240.093441 C229.263771,240.342282 229.444018,240.760201 229.641815,241.34721 Z M244.763603,248.869821 C244.13193,249.361122 243.521003,249.729592 242.930804,249.975243 C242.340604,250.220893 241.678634,250.343717 240.944873,250.343717 C240.274917,250.343717 239.686321,250.211323 239.179069,249.94653 C238.671817,249.681738 238.281015,249.322839 238.006652,248.869821 C237.732289,248.416803 237.59511,247.925509 237.59511,247.395925 C237.59511,246.681305 237.821615,246.071974 238.274633,245.567911 C238.727651,245.063849 239.349743,244.725686 240.14093,244.553412 C240.306823,244.515129 240.718362,244.428993 241.375557,244.295001 C242.032752,244.16101 242.595825,244.038187 243.064794,243.926527 C243.533764,243.814868 244.042603,243.679284 244.591329,243.519771 C244.559427,242.830673 244.420652,242.325023 244.175002,242.002806 C243.929351,241.680589 243.420511,241.519483 242.648467,241.519483 C241.984891,241.519483 241.485622,241.612 241.150644,241.797035 C240.815666,241.982071 240.528546,242.25962 240.289276,242.629691 C240.050006,242.999762 239.880925,243.243813 239.782026,243.361853 C239.683128,243.479893 239.470979,243.538912 239.145571,243.538912 C238.852067,243.538912 238.598444,243.444801 238.384697,243.256575 C238.170949,243.068349 238.064076,242.827488 238.064076,242.533983 C238.064076,242.074585 238.226778,241.627954 238.552185,241.194078 C238.877592,240.760202 239.384837,240.402897 240.073934,240.122154 C240.763032,239.84141 241.621201,239.70104 242.648467,239.70104 C243.796963,239.70104 244.699794,239.836625 245.356989,240.107797 C246.014184,240.37897 246.478361,240.808055 246.749534,241.395064 C247.020706,241.982073 247.156291,242.760486 247.156291,243.730327 C247.156291,244.342858 247.154696,244.862864 247.151505,245.29036 C247.148315,245.717855 247.14353,246.193198 247.137149,246.716402 C247.137149,247.207703 247.2185,247.719733 247.381203,248.252507 C247.543907,248.785282 247.625258,249.12823 247.625258,249.281363 C247.625258,249.549346 247.499244,249.793397 247.247213,250.013526 C246.995182,250.233654 246.709657,250.343717 246.390631,250.343717 C246.122648,250.343717 245.85786,250.217703 245.596258,249.965672 C245.334656,249.713641 245.057107,249.348361 244.763603,248.869821 Z M244.591329,245.089374 C244.208497,245.229746 243.651804,245.378091 242.921233,245.534414 C242.190662,245.690737 241.685012,245.805585 241.404269,245.878961 C241.123525,245.952337 240.855547,246.095897 240.600326,246.309645 C240.345104,246.523393 240.217496,246.821678 240.217496,247.20451 C240.217496,247.600103 240.367436,247.936671 240.667321,248.214224 C240.967206,248.491778 241.359603,248.630552 241.844523,248.630552 C242.361347,248.630552 242.838284,248.517299 243.275351,248.29079 C243.712417,248.064281 244.033034,247.772376 244.237211,247.415067 C244.473291,247.019473 244.591329,246.368669 244.591329,245.462633 L244.591329,245.089374 Z" id="Nova" fill="#666666" sketch:type="MSShapeGroup"></path>
            <path d="M611.115857,240.761311 L611.115857,247.679274 C611.115857,248.279794 611.090335,248.790229 611.039291,249.210593 C610.988247,249.630958 610.872648,250.057321 610.692492,250.489696 C610.392232,251.216326 609.89681,251.782308 609.206211,252.187659 C608.515612,252.593011 607.674896,252.795683 606.684037,252.795683 C605.789261,252.795683 605.043126,252.654563 604.445608,252.372319 C603.84809,252.090074 603.366179,251.633685 602.999862,251.003138 C602.807695,250.666847 602.651562,250.279517 602.531458,249.841137 C602.411354,249.402757 602.351303,248.985401 602.351303,248.589058 C602.351303,248.168693 602.468403,247.84742 602.702606,247.625227 C602.936809,247.403034 603.237064,247.29194 603.603382,247.29194 C603.957689,247.29194 604.224917,247.394027 604.405073,247.598204 C604.585229,247.802381 604.723347,248.120652 604.81943,248.553027 C604.921519,249.015428 605.023605,249.384742 605.125694,249.660982 C605.227782,249.937221 605.398928,250.174423 605.639137,250.372595 C605.879345,250.570767 606.221636,250.669851 606.666022,250.669851 C607.849047,250.669851 608.440551,249.802112 608.440551,248.066607 L608.440551,240.761311 C608.440551,240.220843 608.559152,239.815497 608.796358,239.545263 C609.033563,239.275029 609.356338,239.139914 609.764692,239.139914 C610.179051,239.139914 610.507832,239.275029 610.751042,239.545263 C610.994253,239.815497 611.115857,240.220843 611.115857,240.761311 Z M619.141774,247.427056 L616.691663,247.427056 L616.691663,251.165278 C616.691663,251.699741 616.565555,252.105087 616.313336,252.381326 C616.061118,252.657566 615.742847,252.795683 615.358514,252.795683 C614.956165,252.795683 614.631888,252.659067 614.385675,252.38583 C614.139462,252.112593 614.016357,251.711752 614.016357,251.183294 L614.016357,241.004521 C614.016357,240.416011 614.151472,239.995652 614.421706,239.743434 C614.69194,239.491215 615.121306,239.365108 615.709816,239.365108 L619.141774,239.365108 C620.156654,239.365108 620.937319,239.443174 621.483793,239.59931 C622.024261,239.74944 622.491159,239.998652 622.8845,240.346954 C623.277841,240.695256 623.576596,241.121619 623.780773,241.626056 C623.98495,242.130494 624.087037,242.697977 624.087037,243.328524 C624.087037,244.67369 623.672684,245.693058 622.843965,246.38666 C622.015247,247.080261 620.781195,247.427056 619.141774,247.427056 Z M618.493215,241.373839 L616.691663,241.373839 L616.691663,245.409317 L618.493215,245.409317 C619.123762,245.409317 619.650711,245.343261 620.074078,245.211146 C620.497445,245.079032 620.82022,244.862848 621.042412,244.562587 C621.264605,244.262327 621.3757,243.868992 621.3757,243.38257 C621.3757,242.800065 621.204554,242.325661 620.862257,241.959344 C620.477924,241.569005 619.688251,241.373839 618.493215,241.373839 Z M631.662566,251.408488 C631.06805,251.870889 630.493061,252.217684 629.937579,252.448884 C629.382097,252.680085 628.759067,252.795683 628.068468,252.795683 C627.437921,252.795683 626.88395,252.671077 626.406536,252.421861 C625.929122,252.172645 625.561308,251.834857 625.303085,251.408488 C625.044861,250.982118 624.915751,250.519724 624.915751,250.021292 C624.915751,249.348709 625.128932,248.775221 625.555302,248.300809 C625.981672,247.826398 626.56717,247.508127 627.311816,247.345986 C627.467951,247.309955 627.855281,247.228886 628.473817,247.102777 C629.092354,246.976667 629.622305,246.861069 630.063688,246.755978 C630.50507,246.650887 630.983978,246.523278 631.500426,246.373148 C631.4704,245.724586 631.339789,245.24868 631.108588,244.945417 C630.877388,244.642154 630.39848,244.490525 629.67185,244.490525 C629.047309,244.490525 628.577408,244.577599 628.262135,244.75175 C627.946862,244.925901 627.676631,245.187124 627.451436,245.535426 C627.226241,245.883728 627.067105,246.113423 626.974025,246.22452 C626.880944,246.335616 626.681274,246.391163 626.375008,246.391163 C626.098769,246.391163 625.860066,246.302588 625.658891,246.125434 C625.457717,245.948281 625.357131,245.721588 625.357131,245.445348 C625.357131,245.012973 625.510262,244.592615 625.816527,244.184261 C626.122793,243.775907 626.600199,243.439621 627.248762,243.175392 C627.897324,242.911163 628.705012,242.77905 629.67185,242.77905 C630.752787,242.77905 631.602511,242.906659 632.221047,243.16188 C632.839583,243.417101 633.276455,243.820945 633.531677,244.373424 C633.786898,244.925903 633.914507,245.658527 633.914507,246.571319 C633.914507,247.147818 633.913005,247.637235 633.910003,248.039584 C633.907,248.441933 633.902496,248.889314 633.896491,249.381741 C633.896491,249.844142 633.973056,250.326052 634.126189,250.827487 C634.279322,251.328922 634.355887,251.651697 634.355887,251.795822 C634.355887,252.04804 634.237286,252.277736 634.00008,252.484916 C633.762875,252.692095 633.494146,252.795683 633.193886,252.795683 C632.941667,252.795683 632.692455,252.677082 632.446241,252.439877 C632.200028,252.202671 631.938805,251.858878 631.662566,251.408488 Z M631.500426,247.850421 C631.140114,247.982536 630.616167,248.122155 629.928571,248.269282 C629.240975,248.41641 628.76507,248.524502 628.500841,248.593562 C628.236612,248.662622 627.984397,248.797737 627.744189,248.998911 C627.50398,249.200085 627.383878,249.480825 627.383878,249.841137 C627.383878,250.21346 627.524998,250.53023 627.807243,250.791456 C628.089488,251.052682 628.458802,251.183294 628.915198,251.183294 C629.40162,251.183294 629.850502,251.076703 630.261859,250.863518 C630.673215,250.650333 630.974972,250.375599 631.167139,250.039308 C631.389331,249.666985 631.500426,249.054463 631.500426,248.201724 L631.500426,247.850421 Z M642.625014,251.408488 C642.030499,251.870889 641.455509,252.217684 640.900027,252.448884 C640.344546,252.680085 639.721515,252.795683 639.030916,252.795683 C638.40037,252.795683 637.846398,252.671077 637.368984,252.421861 C636.89157,252.172645 636.523757,251.834857 636.265533,251.408488 C636.007309,250.982118 635.878199,250.519724 635.878199,250.021292 C635.878199,249.348709 636.091381,248.775221 636.51775,248.300809 C636.94412,247.826398 637.529619,247.508127 638.274264,247.345986 C638.4304,247.309955 638.81773,247.228886 639.436266,247.102777 C640.054802,246.976667 640.584753,246.861069 641.026136,246.755978 C641.467519,246.650887 641.946427,246.523278 642.462874,246.373148 C642.432848,245.724586 642.302237,245.24868 642.071037,244.945417 C641.839836,244.642154 641.360928,244.490525 640.634298,244.490525 C640.009757,244.490525 639.539857,244.577599 639.224583,244.75175 C638.90931,244.925901 638.63908,245.187124 638.413885,245.535426 C638.188689,245.883728 638.029554,246.113423 637.936473,246.22452 C637.843392,246.335616 637.643722,246.391163 637.337457,246.391163 C637.061217,246.391163 636.822514,246.302588 636.62134,246.125434 C636.420165,245.948281 636.31958,245.721588 636.31958,245.445348 C636.31958,245.012973 636.47271,244.592615 636.778976,244.184261 C637.085241,243.775907 637.562648,243.439621 638.21121,243.175392 C638.859772,242.911163 639.66746,242.77905 640.634298,242.77905 C641.715235,242.77905 642.564959,242.906659 643.183496,243.16188 C643.802032,243.417101 644.238904,243.820945 644.494125,244.373424 C644.749346,244.925903 644.876955,245.658527 644.876955,246.571319 C644.876955,247.147818 644.875454,247.637235 644.872451,248.039584 C644.869449,248.441933 644.864945,248.889314 644.85894,249.381741 C644.85894,249.844142 644.935505,250.326052 645.088638,250.827487 C645.24177,251.328922 645.318335,251.651697 645.318335,251.795822 C645.318335,252.04804 645.199734,252.277736 644.962529,252.484916 C644.725323,252.692095 644.456594,252.795683 644.156334,252.795683 C643.904115,252.795683 643.654903,252.677082 643.40869,252.439877 C643.162476,252.202671 642.901254,251.858878 642.625014,251.408488 Z M642.462874,247.850421 C642.102562,247.982536 641.578616,248.122155 640.89102,248.269282 C640.203424,248.41641 639.727518,248.524502 639.463289,248.593562 C639.19906,248.662622 638.946845,248.797737 638.706637,248.998911 C638.466429,249.200085 638.346326,249.480825 638.346326,249.841137 C638.346326,250.21346 638.487447,250.53023 638.769691,250.791456 C639.051936,251.052682 639.421251,251.183294 639.877646,251.183294 C640.364068,251.183294 640.81295,251.076703 641.224307,250.863518 C641.635664,250.650333 641.937421,250.375599 642.129587,250.039308 C642.35178,249.666985 642.462874,249.054463 642.462874,248.201724 L642.462874,247.850421 Z M657.577902,248.607073 C657.577902,249.405766 657.372227,250.123377 656.96087,250.759929 C656.549513,251.396481 655.947501,251.894905 655.154813,252.255218 C654.362126,252.61553 653.422326,252.795683 652.335383,252.795683 C651.032254,252.795683 649.957338,252.549474 649.110604,252.057047 C648.510083,251.70274 648.022168,251.229837 647.646842,250.638324 C647.271517,250.046811 647.083857,249.471821 647.083857,248.913337 C647.083857,248.589056 647.196453,248.31132 647.421648,248.080119 C647.646844,247.848919 647.933588,247.73332 648.28189,247.73332 C648.564134,247.73332 648.802838,247.823397 648.998007,248.003553 C649.193176,248.183709 649.359818,248.450937 649.497938,248.805244 C649.666084,249.225608 649.847738,249.576908 650.042908,249.859152 C650.238077,250.141397 650.512811,250.374095 650.867118,250.557254 C651.221425,250.740413 651.686822,250.831991 652.263321,250.831991 C653.056008,250.831991 653.700057,250.647334 654.195487,250.278013 C654.690916,249.908693 654.938627,249.447801 654.938627,248.895322 C654.938627,248.456942 654.805013,248.101139 654.537782,247.827902 C654.27055,247.554665 653.925256,247.345987 653.501889,247.201862 C653.078522,247.057737 652.51254,246.904607 651.803925,246.742466 C650.855103,246.520274 650.060926,246.260552 649.421372,245.963295 C648.781817,245.666037 648.274385,245.260692 647.89906,244.747247 C647.523734,244.233801 647.336075,243.595758 647.336075,242.833097 C647.336075,242.106467 647.534243,241.460917 647.930587,240.896428 C648.326931,240.331938 648.900419,239.898069 649.65107,239.594806 C650.401721,239.291543 651.284473,239.139914 652.299352,239.139914 C653.110055,239.139914 653.811152,239.240499 654.402665,239.441674 C654.994178,239.642848 655.485096,239.910076 655.875435,240.243365 C656.265773,240.576654 656.551016,240.926452 656.731172,241.292769 C656.911328,241.659087 657.001405,242.016391 657.001405,242.364693 C657.001405,242.682969 656.888809,242.969713 656.663614,243.224934 C656.438419,243.480156 656.157679,243.607764 655.821388,243.607764 C655.515122,243.607764 655.282424,243.531199 655.123286,243.378066 C654.964148,243.224934 654.791501,242.97422 654.60534,242.625918 C654.365132,242.127486 654.076886,241.738655 653.740595,241.459413 C653.404303,241.180171 652.863843,241.040552 652.119197,241.040552 C651.428598,241.040552 650.871624,241.192181 650.448257,241.495444 C650.02489,241.798707 649.81321,242.163518 649.81321,242.589887 C649.81321,242.854116 649.885271,243.082311 650.029396,243.274477 C650.173521,243.466644 650.37169,243.631784 650.623908,243.769904 C650.876127,243.908024 651.131344,244.016116 651.389568,244.094184 C651.647792,244.172251 652.074155,244.286349 652.668671,244.436479 C653.413316,244.61063 654.08739,244.802793 654.690914,245.012976 C655.294437,245.223158 655.807874,245.478375 656.231241,245.778635 C656.654608,246.078896 656.98489,246.458719 657.222095,246.918118 C657.459301,247.377516 657.577902,247.940495 657.577902,248.607073 L657.577902,248.607073 Z" id="JPaaS" fill="#666666" sketch:type="MSShapeGroup"></path>
            <path d="M741.139052,266.345274 L741.139052,269.89208 L746.552153,269.89208 L746.552153,266.345274 C746.552153,265.838585 746.666156,265.458574 746.894166,265.20523 C747.122176,264.951885 747.421963,264.825215 747.793535,264.825215 C748.170737,264.825215 748.476153,264.950478 748.709793,265.201007 C748.943433,265.451537 749.060251,265.832955 749.060251,266.345274 L749.060251,276.09899 C749.060251,276.611309 748.942026,276.994135 748.705571,277.247479 C748.469116,277.500824 748.165107,277.627494 747.793535,277.627494 C747.416333,277.627494 747.115139,277.499417 746.889944,277.243257 C746.664749,276.987098 746.552153,276.605679 746.552153,276.09899 L746.552153,271.935716 L741.139052,271.935716 L741.139052,276.09899 C741.139052,276.611309 741.020826,276.994135 740.784371,277.247479 C740.547916,277.500824 740.243908,277.627494 739.872336,277.627494 C739.495134,277.627494 739.19394,277.499417 738.968745,277.243257 C738.743549,276.987098 738.630954,276.605679 738.630954,276.09899 L738.630954,266.345274 C738.630954,265.838585 738.742142,265.458574 738.964522,265.20523 C739.186902,264.951885 739.489504,264.825215 739.872336,264.825215 C740.249537,264.825215 740.554954,264.950478 740.788594,265.201007 C741.022234,265.451537 741.139052,265.832955 741.139052,266.345274 Z M757.420579,276.326999 C756.863221,276.7605 756.324168,277.08562 755.803404,277.30237 C755.282641,277.519121 754.698549,277.627494 754.051113,277.627494 C753.459976,277.627494 752.940628,277.510676 752.493052,277.277036 C752.045477,277.043396 751.700652,276.72672 751.458567,276.326999 C751.216483,275.927278 751.095442,275.493783 751.095442,275.026504 C751.095442,274.395957 751.2953,273.858312 751.695021,273.413551 C752.094743,272.968791 752.643647,272.670412 753.341752,272.518405 C753.488129,272.484626 753.851251,272.408624 754.431128,272.290396 C755.011006,272.172169 755.507835,272.063795 755.921631,271.965272 C756.335427,271.86675 756.784403,271.747116 757.268573,271.606369 C757.240424,270.998343 757.117975,270.552181 756.901225,270.267873 C756.684475,269.983564 756.235499,269.841411 755.554283,269.841411 C754.968776,269.841411 754.528245,269.923043 754.232676,270.08631 C753.937108,270.249576 753.683767,270.494472 753.472646,270.821005 C753.261526,271.147538 753.112336,271.362878 753.025073,271.467031 C752.93781,271.571183 752.75062,271.623259 752.463496,271.623259 C752.204521,271.623259 751.980737,271.54022 751.792136,271.374138 C751.603535,271.208057 751.509236,270.995532 751.509236,270.736558 C751.509236,270.331206 751.652796,269.937121 751.93992,269.554289 C752.227043,269.171457 752.674612,268.856189 753.282639,268.608474 C753.890666,268.36076 754.647873,268.236904 755.554283,268.236904 C756.567662,268.236904 757.364277,268.356537 757.944155,268.595807 C758.524032,268.835077 758.9336,269.213681 759.17287,269.731629 C759.41214,270.249578 759.531773,270.936413 759.531773,271.792155 C759.531773,272.332623 759.530365,272.791451 759.52755,273.168653 C759.524735,273.545855 759.520513,273.965274 759.514883,274.426924 C759.514883,274.860425 759.586663,275.312216 759.730225,275.782311 C759.873787,276.252406 759.945567,276.555007 759.945567,276.690124 C759.945567,276.926579 759.834378,277.141919 759.611998,277.33615 C759.389618,277.53038 759.137685,277.627494 758.856191,277.627494 C758.619736,277.627494 758.386099,277.516306 758.155274,277.293926 C757.924449,277.071546 757.679553,276.74924 757.420579,276.326999 Z M757.268573,272.991313 C756.93078,273.11517 756.439581,273.246063 755.79496,273.383995 C755.150339,273.521927 754.704177,273.623263 754.456463,273.688007 C754.208748,273.75275 753.972297,273.879421 753.747102,274.068022 C753.521906,274.256622 753.409311,274.519815 753.409311,274.857608 C753.409311,275.20666 753.541611,275.503632 753.806215,275.748532 C754.070819,275.993432 754.417052,276.11588 754.844922,276.11588 C755.300943,276.11588 755.72177,276.015951 756.107416,275.81609 C756.493063,275.616229 756.77596,275.358666 756.956116,275.043393 C757.164422,274.694341 757.268573,274.120102 757.268573,273.320659 L757.268573,272.991313 Z M770.501536,272.940644 C770.501536,273.627489 770.39457,274.260841 770.180634,274.840718 C769.966699,275.420596 769.65706,275.918833 769.251709,276.335444 C768.846358,276.752055 768.362196,277.071546 767.799208,277.293926 C767.23622,277.516306 766.602868,277.627494 765.899133,277.627494 C765.201028,277.627494 764.573306,277.514898 764.015948,277.289703 C763.45859,277.064508 762.975836,276.742202 762.567669,276.322777 C762.159503,275.903351 761.849865,275.407929 761.638744,274.836496 C761.427624,274.265063 761.322065,273.633119 761.322065,272.940644 C761.322065,272.242539 761.429031,271.603557 761.642967,271.02368 C761.856902,270.443803 762.163726,269.948381 762.563447,269.5374 C762.963168,269.126418 763.447331,268.809742 764.015948,268.587362 C764.584566,268.364982 765.212288,268.253794 765.899133,268.253794 C766.597238,268.253794 767.23059,268.36639 767.799208,268.591585 C768.367826,268.81678 768.854803,269.137678 769.260154,269.554289 C769.665505,269.9709 769.973736,270.466322 770.184857,271.04057 C770.395977,271.614817 770.501536,272.248169 770.501536,272.940644 Z M768.187667,272.940644 C768.187667,272.000454 767.980773,271.268581 767.566976,270.745002 C767.15318,270.221424 766.597238,269.959638 765.899133,269.959638 C765.448743,269.959638 765.051843,270.076457 764.70842,270.310096 C764.364997,270.543736 764.100397,270.888561 763.914611,271.344581 C763.728825,271.800602 763.635934,272.332617 763.635934,272.940644 C763.635934,273.543041 763.727418,274.069427 763.910389,274.519817 C764.09336,274.970207 764.355145,275.315032 764.695753,275.554302 C765.036361,275.793572 765.437483,275.913205 765.899133,275.913205 C766.597238,275.913205 767.15318,275.650012 767.566976,275.123618 C767.980773,274.597225 768.187667,273.869574 768.187667,272.940644 Z M776.007529,276.259441 L776.007529,268.574695 C774.57754,269.672521 773.614846,270.221426 773.119416,270.221426 C772.882961,270.221426 772.673252,270.127127 772.490281,269.938526 C772.307309,269.749925 772.215825,269.531771 772.215825,269.284056 C772.215825,268.996932 772.305902,268.785815 772.486058,268.650698 C772.666214,268.515581 772.984298,268.341057 773.440318,268.127122 C774.121533,267.806219 774.666216,267.468431 775.074382,267.113749 C775.482548,266.759067 775.844262,266.362166 776.159535,265.923036 C776.474809,265.483905 776.680296,265.213675 776.776004,265.112337 C776.871712,265.010999 777.051865,264.960331 777.31647,264.960331 C777.614853,264.960331 777.854119,265.075742 778.034276,265.306567 C778.214432,265.537392 778.304508,265.855475 778.304508,266.260827 L778.304508,275.930094 C778.304508,277.0617 777.918868,277.627494 777.147574,277.627494 C776.804152,277.627494 776.528292,277.512084 776.319986,277.281259 C776.111681,277.050434 776.007529,276.709831 776.007529,276.259441 L776.007529,276.259441 Z M785.263003,275.423408 L789.671176,275.423408 C790.110307,275.423408 790.445279,275.513485 790.676104,275.693641 C790.906929,275.873797 791.02234,276.118693 791.02234,276.428336 C791.02234,276.7042 790.930856,276.937837 790.747885,277.129253 C790.564914,277.320668 790.287647,277.416375 789.916075,277.416375 L783.70072,277.416375 C783.278479,277.416375 782.949136,277.299557 782.712681,277.065917 C782.476226,276.832277 782.358001,276.557824 782.358001,276.242551 C782.358001,276.039876 782.434003,275.771053 782.58601,275.436075 C782.738016,275.101097 782.904095,274.837904 783.084251,274.646489 C783.833025,273.869565 784.5086,273.203842 785.110997,272.649299 C785.713394,272.094756 786.144074,271.730227 786.403048,271.555701 C786.864698,271.229168 787.248931,270.901232 787.55576,270.571884 C787.862588,270.242537 788.096225,269.904749 788.256676,269.558511 C788.417128,269.212274 788.497352,268.873079 788.497352,268.540916 C788.497352,268.180604 788.411498,267.858298 788.239787,267.573989 C788.068075,267.28968 787.834439,267.068711 787.53887,266.911074 C787.243302,266.753438 786.920996,266.674621 786.571944,266.674621 C785.834429,266.674621 785.254561,266.998334 784.83232,267.64577 C784.776021,267.730218 784.681722,267.96104 784.54942,268.338241 C784.417118,268.715443 784.267928,269.005378 784.101847,269.208053 C783.935765,269.410729 783.692277,269.512065 783.371374,269.512065 C783.08988,269.512065 782.856243,269.419174 782.670457,269.233388 C782.484671,269.047602 782.39178,268.794261 782.39178,268.473358 C782.39178,268.084896 782.479041,267.679551 782.653568,267.25731 C782.828094,266.835069 783.088472,266.452243 783.434709,266.108821 C783.780947,265.765398 784.220071,265.488131 784.752094,265.27701 C785.284118,265.06589 785.907618,264.960331 786.622612,264.960331 C787.483984,264.960331 788.218672,265.095446 788.826699,265.36568 C789.22079,265.545837 789.567022,265.793548 789.865406,266.108821 C790.163789,266.424094 790.396018,266.788623 790.5621,267.202419 C790.728181,267.616215 790.811221,268.045487 790.811221,268.490247 C790.811221,269.188352 790.638105,269.823112 790.291867,270.394544 C789.94563,270.965977 789.59236,271.413545 789.232048,271.737264 C788.871736,272.060982 788.26794,272.56907 787.420643,273.261545 C786.573347,273.954021 785.992071,274.491666 785.676797,274.874498 C785.54168,275.026504 785.40375,275.209473 785.263003,275.423408 L785.263003,275.423408 Z M796.418552,269.942749 C796.9365,269.942749 797.382662,269.790744 797.757049,269.486731 C798.131435,269.182717 798.318626,268.746408 798.318626,268.177791 C798.318626,267.74429 798.169437,267.371316 797.871053,267.058858 C797.572669,266.7464 797.170139,266.590173 796.66345,266.590173 C796.320028,266.590173 796.03713,266.638026 795.81475,266.733734 C795.59237,266.829442 795.416439,266.956112 795.286952,267.113749 C795.157465,267.271386 795.035016,267.474058 794.919604,267.721773 C794.804191,267.969487 794.698633,268.203124 794.602925,268.422689 C794.546626,268.540917 794.44529,268.633808 794.298913,268.701367 C794.152536,268.768925 793.983642,268.802704 793.792226,268.802704 C793.567031,268.802704 793.360136,268.71122 793.171535,268.528249 C792.982935,268.345278 792.888635,268.101789 792.888635,267.797776 C792.888635,267.505022 792.977305,267.196791 793.154646,266.873073 C793.331987,266.549355 793.590958,266.241124 793.931565,265.94837 C794.272173,265.655616 794.695815,265.420572 795.202504,265.243231 C795.709193,265.06589 796.274987,264.977221 796.899904,264.977221 C797.446002,264.977221 797.944239,265.051816 798.394629,265.201007 C798.845019,265.350199 799.23629,265.565539 799.568453,265.847033 C799.900616,266.128527 800.151141,266.455055 800.320038,266.826627 C800.488934,267.198199 800.573381,267.597914 800.573381,268.025785 C800.573381,268.588773 800.450933,269.071527 800.206033,269.474064 C799.961134,269.8766 799.610679,270.269278 799.154659,270.65211 C799.593789,270.888565 799.963948,271.158795 800.265147,271.462808 C800.566345,271.766822 800.792945,272.103202 800.944951,272.471959 C801.096958,272.840716 801.17296,273.239024 801.17296,273.666895 C801.17296,274.179214 801.070216,274.674635 800.864726,275.153175 C800.659235,275.631715 800.356634,276.058172 799.956912,276.432559 C799.557191,276.806946 799.082881,277.099695 798.533968,277.310815 C797.985055,277.521936 797.378444,277.627494 796.714119,277.627494 C796.038533,277.627494 795.43333,277.506454 794.898492,277.264369 C794.363654,277.022284 793.923122,276.719683 793.576885,276.356556 C793.230647,275.993428 792.968862,275.61764 792.791521,275.229178 C792.614179,274.840717 792.52551,274.519818 792.52551,274.266474 C792.52551,273.939941 792.631069,273.676748 792.842189,273.476887 C793.05331,273.277027 793.316503,273.177098 793.631776,273.177098 C793.789412,273.177098 793.941417,273.223544 794.087794,273.316436 C794.23417,273.409329 794.329877,273.520518 794.374916,273.650005 C794.66767,274.432558 794.981531,275.013834 795.316508,275.393851 C795.651486,275.773868 796.122981,275.963874 796.731008,275.963874 C797.080061,275.963874 797.416441,275.878019 797.740159,275.706308 C798.063877,275.534597 798.331292,275.279848 798.542413,274.942056 C798.753533,274.604263 798.859092,274.212992 798.859092,273.768232 C798.859092,273.109536 798.678938,272.593003 798.318626,272.218616 C797.958314,271.844229 797.457262,271.657038 796.815456,271.657038 C796.702858,271.657038 796.528335,271.668298 796.29188,271.690817 C796.055425,271.713337 795.903421,271.724596 795.835862,271.724596 C795.526219,271.724596 795.286953,271.647187 795.118056,271.492365 C794.94916,271.337543 794.864713,271.122204 794.864713,270.84634 C794.864713,270.576106 794.966049,270.357951 795.168725,270.19187 C795.3714,270.025788 795.672594,269.942749 796.072316,269.942749 L796.418552,269.942749 Z" id="Hao123" fill="#666666" sketch:type="MSShapeGroup"></path>
            <path d="M690.532141,347.056057 L688.530729,339.633099 L686.503983,347.056057 C686.346346,347.619045 686.221084,348.022982 686.128191,348.267882 C686.035298,348.512782 685.873441,348.732344 685.642616,348.926575 C685.411791,349.120805 685.104967,349.217919 684.722135,349.217919 C684.412492,349.217919 684.157744,349.160214 683.957883,349.044801 C683.758023,348.929389 683.596166,348.766125 683.472309,348.555005 C683.348451,348.343884 683.247115,348.093358 683.168297,347.80342 C683.089478,347.513481 683.019106,347.244658 682.957177,346.996943 L680.896652,338.66195 C680.772795,338.177781 680.710867,337.809029 680.710867,337.555685 C680.710867,337.234782 680.823463,336.964551 681.048658,336.744986 C681.273853,336.525421 681.552528,336.41564 681.884691,336.41564 C682.340711,336.41564 682.647535,336.562015 682.805171,336.854768 C682.962808,337.147522 683.100738,337.572571 683.218965,338.129929 L684.840362,345.358657 L686.655989,338.594392 C686.791106,338.076443 686.912147,337.682358 687.019114,337.412123 C687.126082,337.141889 687.300606,336.908253 687.54269,336.711207 C687.784775,336.514161 688.114118,336.41564 688.530729,336.41564 C688.95297,336.41564 689.280906,336.518384 689.514545,336.723874 C689.748185,336.929365 689.910042,337.153149 690.00012,337.395234 C690.090198,337.637319 690.211239,338.037034 690.363245,338.594392 L692.195762,345.358657 L693.817159,338.129929 C693.895977,337.752727 693.970572,337.457163 694.040945,337.243228 C694.111319,337.029293 694.232359,336.83788 694.40407,336.668983 C694.575782,336.500087 694.8249,336.41564 695.151433,336.41564 C695.477966,336.41564 695.755233,336.524013 695.983243,336.740764 C696.211254,336.957514 696.325257,337.229152 696.325257,337.555685 C696.325257,337.78651 696.263329,338.155261 696.139472,338.66195 L694.078947,346.996943 C693.9382,347.559931 693.821381,347.972314 693.728488,348.234103 C693.635595,348.495892 693.477961,348.725307 693.255581,348.922352 C693.033201,349.119398 692.71934,349.217919 692.313989,349.217919 C691.931157,349.217919 691.624333,349.122213 691.393508,348.930797 C691.162683,348.739381 691.002234,348.524042 690.912156,348.284772 C690.822078,348.045502 690.695407,347.635934 690.532141,347.056057 L690.532141,347.056057 Z M706.754554,347.056057 L704.753143,339.633099 L702.726397,347.056057 C702.56876,347.619045 702.443497,348.022982 702.350604,348.267882 C702.257711,348.512782 702.095855,348.732344 701.865029,348.926575 C701.634204,349.120805 701.327381,349.217919 700.944549,349.217919 C700.634906,349.217919 700.380157,349.160214 700.180297,349.044801 C699.980436,348.929389 699.81858,348.766125 699.694722,348.555005 C699.570865,348.343884 699.469529,348.093358 699.39071,347.80342 C699.311892,347.513481 699.24152,347.244658 699.179591,346.996943 L697.119066,338.66195 C696.995208,338.177781 696.933281,337.809029 696.933281,337.555685 C696.933281,337.234782 697.045877,336.964551 697.271072,336.744986 C697.496267,336.525421 697.774942,336.41564 698.107104,336.41564 C698.563125,336.41564 698.869948,336.562015 699.027585,336.854768 C699.185222,337.147522 699.323152,337.572571 699.441379,338.129929 L701.062776,345.358657 L702.878403,338.594392 C703.01352,338.076443 703.13456,337.682358 703.241528,337.412123 C703.348496,337.141889 703.523019,336.908253 703.765104,336.711207 C704.007189,336.514161 704.336532,336.41564 704.753143,336.41564 C705.175384,336.41564 705.503319,336.518384 705.736959,336.723874 C705.970599,336.929365 706.132456,337.153149 706.222534,337.395234 C706.312612,337.637319 706.433652,338.037034 706.585659,338.594392 L708.418175,345.358657 L710.039572,338.129929 C710.11839,337.752727 710.192985,337.457163 710.263359,337.243228 C710.333732,337.029293 710.454773,336.83788 710.626484,336.668983 C710.798195,336.500087 711.047314,336.41564 711.373847,336.41564 C711.70038,336.41564 711.977647,336.524013 712.205657,336.740764 C712.433667,336.957514 712.54767,337.229152 712.54767,337.555685 C712.54767,337.78651 712.485743,338.155261 712.361885,338.66195 L710.30136,346.996943 C710.160613,347.559931 710.043795,347.972314 709.950902,348.234103 C709.858009,348.495892 709.700375,348.725307 709.477995,348.922352 C709.255614,349.119398 708.941753,349.217919 708.536402,349.217919 C708.15357,349.217919 707.846747,349.122213 707.615922,348.930797 C707.385097,348.739381 707.224647,348.524042 707.134569,348.284772 C707.044491,348.045502 706.917821,347.635934 706.754554,347.056057 L706.754554,347.056057 Z M722.976968,347.056057 L720.975556,339.633099 L718.94881,347.056057 C718.791174,347.619045 718.665911,348.022982 718.573018,348.267882 C718.480125,348.512782 718.318268,348.732344 718.087443,348.926575 C717.856618,349.120805 717.549794,349.217919 717.166962,349.217919 C716.857319,349.217919 716.602571,349.160214 716.40271,349.044801 C716.20285,348.929389 716.040993,348.766125 715.917136,348.555005 C715.793278,348.343884 715.691942,348.093358 715.613124,347.80342 C715.534306,347.513481 715.463933,347.244658 715.402004,346.996943 L713.341479,338.66195 C713.217622,338.177781 713.155694,337.809029 713.155694,337.555685 C713.155694,337.234782 713.26829,336.964551 713.493485,336.744986 C713.71868,336.525421 713.997355,336.41564 714.329518,336.41564 C714.785538,336.41564 715.092362,336.562015 715.249998,336.854768 C715.407635,337.147522 715.545565,337.572571 715.663792,338.129929 L717.285189,345.358657 L719.100816,338.594392 C719.235933,338.076443 719.356974,337.682358 719.463941,337.412123 C719.570909,337.141889 719.745433,336.908253 719.987517,336.711207 C720.229602,336.514161 720.558945,336.41564 720.975556,336.41564 C721.397797,336.41564 721.725733,336.518384 721.959373,336.723874 C722.193012,336.929365 722.354869,337.153149 722.444947,337.395234 C722.535025,337.637319 722.656066,338.037034 722.808072,338.594392 L724.640589,345.358657 L726.261986,338.129929 C726.340804,337.752727 726.415399,337.457163 726.485772,337.243228 C726.556146,337.029293 726.677186,336.83788 726.848897,336.668983 C727.020609,336.500087 727.269727,336.41564 727.59626,336.41564 C727.922793,336.41564 728.20006,336.524013 728.42807,336.740764 C728.656081,336.957514 728.770084,337.229152 728.770084,337.555685 C728.770084,337.78651 728.708156,338.155261 728.584299,338.66195 L726.523774,346.996943 C726.383027,347.559931 726.266208,347.972314 726.173315,348.234103 C726.080422,348.495892 725.922788,348.725307 725.700408,348.922352 C725.478028,349.119398 725.164167,349.217919 724.758816,349.217919 C724.375984,349.217919 724.06916,349.122213 723.838335,348.930797 C723.60751,348.739381 723.447061,348.524042 723.356983,348.284772 C723.266905,348.045502 723.140234,347.635934 722.976968,347.056057 L722.976968,347.056057 Z" id="WWW" fill="#666666" sketch:type="MSShapeGroup"></path>
            <path d="M521.527364,143.459422 L521.527364,147.242683 L527.30134,147.242683 L527.30134,143.459422 C527.30134,142.918953 527.422944,142.513608 527.666154,142.243374 C527.909365,141.973139 528.229138,141.838024 528.625481,141.838024 C529.02783,141.838024 529.353608,141.971638 529.602824,142.23887 C529.85204,142.506102 529.976646,142.912948 529.976646,143.459422 L529.976646,153.863389 C529.976646,154.409863 529.850538,154.81821 529.59832,155.088445 C529.346101,155.358679 529.021825,155.493794 528.625481,155.493794 C528.223133,155.493794 527.901859,155.357178 527.661651,155.083941 C527.421442,154.810704 527.30134,154.403857 527.30134,153.863389 L527.30134,149.422561 L521.527364,149.422561 L521.527364,153.863389 C521.527364,154.409863 521.401256,154.81821 521.149037,155.088445 C520.896819,155.358679 520.572543,155.493794 520.176199,155.493794 C519.77385,155.493794 519.452576,155.357178 519.212368,155.083941 C518.97216,154.810704 518.852058,154.403857 518.852058,153.863389 L518.852058,143.459422 C518.852058,142.918953 518.970659,142.513608 519.207864,142.243374 C519.44507,141.973139 519.767845,141.838024 520.176199,141.838024 C520.578548,141.838024 520.904325,141.971638 521.153541,142.23887 C521.402757,142.506102 521.527364,142.912948 521.527364,143.459422 Z M535.138094,146.89138 L535.138094,153.998505 C535.138094,154.490932 535.020995,154.863249 534.786792,155.115468 C534.552589,155.367687 534.255335,155.493794 533.895023,155.493794 C533.534711,155.493794 533.241961,155.364684 533.016766,155.10646 C532.791571,154.848236 532.678975,154.478922 532.678975,153.998505 L532.678975,146.963442 C532.678975,146.47702 532.791571,146.110708 533.016766,145.864495 C533.241961,145.618281 533.534711,145.495176 533.895023,145.495176 C534.255335,145.495176 534.552589,145.618281 534.786792,145.864495 C535.020995,146.110708 535.138094,146.453 535.138094,146.89138 Z M533.922046,144.35119 C533.57975,144.35119 533.287,144.246101 533.043789,144.035919 C532.800579,143.825736 532.678975,143.528483 532.678975,143.14415 C532.678975,142.795848 532.803581,142.509104 533.052797,142.283909 C533.302013,142.058713 533.59176,141.946118 533.922046,141.946118 C534.240322,141.946118 534.522563,142.048204 534.768776,142.252381 C535.01499,142.456558 535.138094,142.753812 535.138094,143.14415 C535.138094,143.522478 535.017992,143.81823 534.777784,144.031415 C534.537576,144.2446 534.252333,144.35119 533.922046,144.35119 Z M542.974849,150.125167 L540.524737,150.125167 L540.524737,153.863389 C540.524737,154.397852 540.39863,154.803197 540.146411,155.079437 C539.894192,155.355676 539.575921,155.493794 539.191588,155.493794 C538.789239,155.493794 538.464963,155.357178 538.21875,155.083941 C537.972536,154.810704 537.849431,154.409863 537.849431,153.881404 L537.849431,143.702631 C537.849431,143.114121 537.984546,142.693763 538.254781,142.441545 C538.525015,142.189326 538.954381,142.063218 539.542891,142.063218 L542.974849,142.063218 C543.989729,142.063218 544.770394,142.141285 545.316867,142.29742 C545.857336,142.44755 546.324234,142.696763 546.717575,143.045065 C547.110916,143.393367 547.40967,143.81973 547.613847,144.324167 C547.818024,144.828604 547.920111,145.396088 547.920111,146.026634 C547.920111,147.371801 547.505758,148.391169 546.67704,149.08477 C545.848321,149.778372 544.61427,150.125167 542.974849,150.125167 Z M542.32629,144.07195 L540.524737,144.07195 L540.524737,148.107428 L542.32629,148.107428 C542.956836,148.107428 543.483785,148.041372 543.907152,147.909257 C544.330519,147.777143 544.653294,147.560958 544.875487,147.260698 C545.09768,146.960438 545.208774,146.567103 545.208774,146.080681 C545.208774,145.498176 545.037628,145.023772 544.695332,144.657454 C544.310999,144.267116 543.521326,144.07195 542.32629,144.07195 Z M552.387962,143.333313 L552.387962,146.981457 C552.700233,146.621145 553.004992,146.335902 553.30225,146.12572 C553.599508,145.915538 553.928288,145.757903 554.2886,145.652812 C554.648912,145.547721 555.036242,145.495176 555.450602,145.495176 C556.075143,145.495176 556.629115,145.627289 557.112534,145.891518 C557.595953,146.155747 557.975777,146.540074 558.252016,147.044512 C558.426167,147.338767 558.543267,147.667547 558.603319,148.030862 C558.663371,148.394177 558.693396,148.813034 558.693396,149.287445 L558.693396,153.998505 C558.693396,154.490932 558.580801,154.863249 558.355605,155.115468 C558.13041,155.367687 557.831656,155.493794 557.459333,155.493794 C556.64863,155.493794 556.243285,154.995369 556.243285,153.998505 L556.243285,149.845926 C556.243285,149.059244 556.126185,148.454229 555.891982,148.030862 C555.657779,147.607495 555.2134,147.395815 554.558833,147.395815 C554.120453,147.395815 553.725617,147.520421 553.374312,147.769637 C553.023007,148.018853 552.760284,148.359643 552.586133,148.792018 C552.454018,149.158335 552.387962,149.809891 552.387962,150.746703 L552.387962,153.998505 C552.387962,154.484927 552.278369,154.855743 552.059178,155.110964 C551.839988,155.366185 551.535229,155.493794 551.14489,155.493794 C550.334188,155.493794 549.928842,154.995369 549.928842,153.998505 L549.928842,143.333313 C549.928842,142.834881 550.035433,142.461063 550.248618,142.211847 C550.461803,141.962631 550.760557,141.838024 551.14489,141.838024 C551.535229,141.838024 551.839988,141.964132 552.059178,142.21635 C552.278369,142.468569 552.387962,142.840886 552.387962,143.333313 Z M570.331427,150.494485 C570.331427,151.22712 570.21733,151.902696 569.989132,152.521232 C569.760934,153.139768 569.430653,153.671221 568.998278,154.115606 C568.565903,154.559991 568.049463,154.900782 567.448943,155.137987 C566.848422,155.375193 566.172847,155.493794 565.422196,155.493794 C564.67755,155.493794 564.00798,155.373692 563.413465,155.133484 C562.818949,154.893275 562.304011,154.549482 561.868633,154.102095 C561.433256,153.654707 561.102974,153.126257 560.877779,152.516728 C560.652584,151.9072 560.539988,151.233126 560.539988,150.494485 C560.539988,149.74984 560.654085,149.068259 560.882283,148.449723 C561.110481,147.831187 561.43776,147.302737 561.864129,146.864356 C562.290499,146.425976 562.806939,146.088189 563.413465,145.850983 C564.01999,145.613777 564.689561,145.495176 565.422196,145.495176 C566.166841,145.495176 566.842417,145.615279 567.448943,145.855487 C568.055469,146.095695 568.574911,146.437987 569.007286,146.882372 C569.439661,147.326757 569.768441,147.855207 569.993636,148.467738 C570.218831,149.080269 570.331427,149.755845 570.331427,150.494485 Z M567.8633,150.494485 C567.8633,149.491616 567.642612,148.710951 567.201229,148.152467 C566.759847,147.593983 566.166841,147.314745 565.422196,147.314745 C564.941779,147.314745 564.518419,147.439351 564.152101,147.688567 C563.785784,147.937783 563.503543,148.305596 563.305371,148.792018 C563.1072,149.27844 563.008115,149.845923 563.008115,150.494485 C563.008115,151.137042 563.105698,151.698521 563.300868,152.178937 C563.496037,152.659354 563.775275,153.027167 564.13859,153.282388 C564.501905,153.537609 564.929769,153.665218 565.422196,153.665218 C566.166841,153.665218 566.759847,153.384479 567.201229,152.822992 C567.642612,152.261505 567.8633,151.485344 567.8633,150.494485 Z M572.403213,145.711363 L572.673446,145.711363 L572.673446,144.23409 C572.673446,143.837746 572.683955,143.526981 572.704973,143.301786 C572.725991,143.076591 572.784541,142.882926 572.880624,142.720785 C572.976708,142.552639 573.114825,142.416023 573.294981,142.310932 C573.475138,142.205841 573.676309,142.153296 573.898502,142.153296 C574.210772,142.153296 574.493013,142.270396 574.745231,142.504599 C574.913377,142.660734 575.019968,142.851397 575.065007,143.076592 C575.110046,143.301787 575.132565,143.62156 575.132565,144.035919 L575.132565,145.711363 L576.033342,145.711363 C576.381643,145.711363 576.64737,145.793933 576.830529,145.959076 C577.013687,146.124219 577.105265,146.3359 577.105265,146.594124 C577.105265,146.92441 576.974654,147.155607 576.713428,147.287721 C576.452201,147.419836 576.078383,147.485892 575.591961,147.485892 L575.132565,147.485892 L575.132565,152.00779 C575.132565,152.392123 575.146077,152.687875 575.1731,152.895054 C575.200123,153.102234 575.272185,153.270377 575.389286,153.399489 C575.506388,153.528601 575.69705,153.593156 575.961279,153.593156 C576.105404,153.593156 576.300571,153.567634 576.546784,153.51659 C576.792997,153.465546 576.985161,153.440024 577.123281,153.440024 C577.321453,153.440024 577.500105,153.519592 577.659243,153.67873 C577.818381,153.837868 577.897949,154.034535 577.897949,154.268738 C577.897949,154.665082 577.681764,154.96834 577.24939,155.178522 C576.817015,155.388705 576.195485,155.493794 575.384783,155.493794 C574.616116,155.493794 574.03362,155.364684 573.637276,155.10646 C573.240933,154.848236 572.981212,154.490932 572.858105,154.034536 C572.734998,153.578141 572.673446,152.968621 572.673446,152.20596 L572.673446,147.485892 L572.349166,147.485892 C571.994859,147.485892 571.724629,147.401821 571.538467,147.233675 C571.352306,147.065529 571.259227,146.852347 571.259227,146.594124 C571.259227,146.3359 571.35681,146.124219 571.551979,145.959076 C571.747148,145.793933 572.03089,145.711363 572.403213,145.711363 Z M588.004659,150.494485 C588.004659,151.22712 587.890562,151.902696 587.662364,152.521232 C587.434167,153.139768 587.103885,153.671221 586.67151,154.115606 C586.239136,154.559991 585.722696,154.900782 585.122175,155.137987 C584.521654,155.375193 583.846079,155.493794 583.095428,155.493794 C582.350783,155.493794 581.681212,155.373692 581.086697,155.133484 C580.492182,154.893275 579.977243,154.549482 579.541865,154.102095 C579.106488,153.654707 578.776207,153.126257 578.551011,152.516728 C578.325816,151.9072 578.21322,151.233126 578.21322,150.494485 C578.21322,149.74984 578.327318,149.068259 578.555515,148.449723 C578.783713,147.831187 579.110992,147.302737 579.537362,146.864356 C579.963731,146.425976 580.480171,146.088189 581.086697,145.850983 C581.693223,145.613777 582.362793,145.495176 583.095428,145.495176 C583.840074,145.495176 584.515649,145.615279 585.122175,145.855487 C585.728701,146.095695 586.248143,146.437987 586.680518,146.882372 C587.112893,147.326757 587.441673,147.855207 587.666868,148.467738 C587.892064,149.080269 588.004659,149.755845 588.004659,150.494485 Z M585.536532,150.494485 C585.536532,149.491616 585.315844,148.710951 584.874462,148.152467 C584.433079,147.593983 583.840074,147.314745 583.095428,147.314745 C582.615012,147.314745 582.191651,147.439351 581.825334,147.688567 C581.459016,147.937783 581.176776,148.305596 580.978604,148.792018 C580.780432,149.27844 580.681348,149.845923 580.681348,150.494485 C580.681348,151.137042 580.778931,151.698521 580.9741,152.178937 C581.169269,152.659354 581.448507,153.027167 581.811822,153.282388 C582.175137,153.537609 582.603001,153.665218 583.095428,153.665218 C583.840074,153.665218 584.433079,153.384479 584.874462,152.822992 C585.315844,152.261505 585.536532,151.485344 585.536532,150.494485 Z M597.859153,152.278022 C597.859153,152.956611 597.694012,153.537606 597.363726,154.021025 C597.03344,154.504444 596.545524,154.870756 595.899964,155.119972 C595.254405,155.369188 594.469236,155.493794 593.544434,155.493794 C592.661669,155.493794 591.905024,155.358679 591.274478,155.088445 C590.643931,154.81821 590.178535,154.480423 589.878274,154.075071 C589.578014,153.66972 589.427886,153.262873 589.427886,152.854519 C589.427886,152.584285 589.523968,152.353088 589.716135,152.160922 C589.908301,151.968755 590.151508,151.872673 590.445763,151.872673 C590.703987,151.872673 590.902156,151.935727 591.040276,152.061836 C591.178396,152.187945 591.310508,152.365096 591.436617,152.593294 C591.688836,153.031674 591.990593,153.358953 592.341898,153.57514 C592.693202,153.791328 593.17211,153.89942 593.778636,153.89942 C594.271063,153.89942 594.674907,153.789827 594.99018,153.570637 C595.305453,153.351447 595.463088,153.100733 595.463088,152.818488 C595.463088,152.386113 595.299448,152.070845 594.972165,151.872673 C594.644881,151.674501 594.105922,151.48534 593.355271,151.305184 C592.508537,151.095002 591.81945,150.874314 591.287989,150.643113 C590.756529,150.411913 590.331667,150.107153 590.013391,149.728825 C589.695115,149.350497 589.535979,148.885101 589.535979,148.332622 C589.535979,147.840195 589.683105,147.374799 589.97736,146.936419 C590.271615,146.498039 590.705484,146.148241 591.278982,145.887014 C591.852479,145.625788 592.544568,145.495176 593.355271,145.495176 C593.991823,145.495176 594.56381,145.561233 595.07125,145.693347 C595.57869,145.825462 596.002051,146.002613 596.341345,146.224805 C596.680639,146.446998 596.938859,146.693208 597.116012,146.963442 C597.293166,147.233676 597.381741,147.497901 597.381741,147.756125 C597.381741,148.03837 597.287161,148.269567 597.097997,148.449723 C596.908833,148.629879 596.640104,148.719956 596.291802,148.719956 C596.039583,148.719956 595.8249,148.647894 595.647747,148.503769 C595.470593,148.359645 595.267921,148.14346 595.039723,147.85521 C594.853561,147.615002 594.634375,147.422839 594.382156,147.278714 C594.129937,147.134589 593.787646,147.062527 593.355271,147.062527 C592.910886,147.062527 592.541571,147.157108 592.247316,147.346272 C591.953061,147.535436 591.805936,147.771137 591.805936,148.053381 C591.805936,148.311605 591.914028,148.523285 592.130215,148.688429 C592.346403,148.853572 592.637651,148.990188 593.003968,149.098282 C593.370286,149.206376 593.874716,149.338488 594.517273,149.494623 C595.279934,149.680785 595.902964,149.902974 596.386384,150.161198 C596.869803,150.419422 597.236115,150.724181 597.485331,151.075486 C597.734547,151.426791 597.859153,151.827632 597.859153,152.278022 L597.859153,152.278022 Z" id="HiPhotos" fill="#666666" sketch:type="MSShapeGroup"></path>
        </g>
    </g>
</svg>