<?xml version="1.0" encoding="UTF-8" standalone="no"?>
<svg width="502px" height="142px" viewBox="0 0 560 158" version="1.1" xmlns="http://www.w3.org/2000/svg" xmlns:xlink="http://www.w3.org/1999/xlink" xmlns:sketch="http://www.bohemiancoding.com/sketch/ns">
    <!-- Generator: Sketch 3.0 (7574) - http://www.bohemiancoding.com/sketch -->
    <title>Slice 1</title>
    <description>Created with Sketch.</description>
    <defs></defs>
    <g id="Page-1" stroke="none" stroke-width="1" fill="none" fill-rule="evenodd" sketch:type="MSPage">
        <g id="line" sketch:type="MSLayerGroup" transform="translate(2.000000, 2.000000)" stroke-width="3">
            <g id="Group" sketch:type="MSShapeGroup">
                <path d="M3.9375,119.304688 L47.90625,94.4335938 L73.03125,52.0507812 L108.527344,81.015625 L137.398438,59.7734375 L173.851563,92.3398438 L206.164062,97.2265625 L246.246094,57.0976562 L277.257812,4.94140625 L314.59375,66.8671875 L359.5625,90.25 L391.96875,68.3125 L426.421875,31.2265625 L481.761719,75.1484375 L548.886719,90.25" id="Path-8" stroke-opacity="0.7" stroke="#E97F02"></path>
                <path d="M4.5,124 C6.98528137,124 9,121.985281 9,119.5 C9,117.014719 6.98528137,115 4.5,115 C2.01471863,115 0,117.014719 0,119.5 C0,121.985281 2.01471863,124 4.5,124 L4.5,124 Z" id="Oval-14" stroke="#E97F02" fill="#E97F02"></path>
                <path d="M5.73046875,133.082031 L47.1601562,143.851562 L75.03125,121.519531 L143.679688,135.429688 L173.945313,132.636719 L214.378906,114.144531 L277.09375,120.214844 L315.734375,101.722656 L358.5625,118.074219 L402.15625,104.558594 L466.363281,60.78125 L524.195312,77.5742188 L543.34375,106.746094" id="Path-9" stroke-opacity="0.65" stroke="#417505"></path>
                <path d="M359.5,122 C361.985281,122 364,119.985281 364,117.5 C364,115.014719 361.985281,113 359.5,113 C357.014719,113 355,115.014719 355,117.5 C355,119.985281 357.014719,122 359.5,122 L359.5,122 Z" id="Oval-40" stroke="#417505" fill="#417505"></path>
                <path d="M402.5,107 C404.985281,107 407,104.985281 407,102.5 C407,100.014719 404.985281,98 402.5,98 C400.014719,98 398,100.014719 398,102.5 C398,104.985281 400.014719,107 402.5,107 L402.5,107 Z" id="Oval-40-2" stroke="#417505" fill="#417505"></path>
                <path d="M523.5,81 C525.985281,81 528,78.9852814 528,76.5 C528,74.0147186 525.985281,72 523.5,72 C521.014719,72 519,74.0147186 519,76.5 C519,78.9852814 521.014719,81 523.5,81 L523.5,81 Z" id="Oval-40-3" stroke="#417505" fill="#417505"></path>
                <path d="M467.5,64 C469.985281,64 472,61.9852814 472,59.5 C472,57.0147186 469.985281,55 467.5,55 C465.014719,55 463,57.0147186 463,59.5 C463,61.9852814 465.014719,64 467.5,64 L467.5,64 Z" id="Oval-40-4" stroke="#417505" fill="#417505"></path>
                <path d="M45.5,149 C47.985281,149 50,146.985281 50,144.5 C50,142.014719 47.985281,140 45.5,140 C43.014719,140 41,142.014719 41,144.5 C41,146.985281 43.014719,149 45.5,149 L45.5,149 Z" id="Oval-40-5" stroke="#417505" fill="#417505"></path>
                <path d="M5.5,139 C7.985281,139 10,136.985281 10,134.5 C10,132.014719 7.985281,130 5.5,130 C3.014719,130 1,132.014719 1,134.5 C1,136.985281 3.014719,139 5.5,139 L5.5,139 Z" id="Oval-40-12" stroke="#417505" fill="#417505"></path>
                <path d="M275.5,125 C277.985281,125 280,122.985281 280,120.5 C280,118.014719 277.985281,116 275.5,116 C273.014719,116 271,118.014719 271,120.5 C271,122.985281 273.014719,125 275.5,125 L275.5,125 Z" id="Oval-40-6" stroke="#417505" fill="#417505"></path>
                <path d="M547,107.5 C547,105.014719 544.985281,103 542.5,103 C540.014719,103 538,105.014719 538,107.5 C538,109.985281 540.014719,112 542.5,112 C544.985281,112 547,109.985281 547,107.5 Z" id="Oval-41" stroke="#417505" fill="#417505"></path>
                <path d="M282,4.5 C282,2.0147186 279.985281,0 277.5,0 C275.014719,0 273,2.0147186 273,4.5 C273,6.9852814 275.014719,9 277.5,9 C279.985281,9 282,6.9852814 282,4.5 Z" id="Oval-17" stroke="#E97F02" fill="#E97F02"></path>
                <path d="M142,58.5 C142,56.0147186 139.985281,54 137.5,54 C135.014719,54 133,56.0147186 133,58.5 C133,60.9852814 135.014719,63 137.5,63 C139.985281,63 142,60.9852814 142,58.5 Z" id="Oval-17-2" stroke="#E97F02" fill="#E97F02"></path>
                <path d="M210,97.5 C210,95.0147186 207.985281,93 205.5,93 C203.014719,93 201,95.0147186 201,97.5 C201,99.9852814 203.014719,102 205.5,102 C207.985281,102 210,99.9852814 210,97.5 Z" id="Oval-17-3" stroke="#E97F02" fill="#E97F02"></path>
                <path d="M430,32.5 C430,30.0147186 427.985281,28 425.5,28 C423.014719,28 421,30.0147186 421,32.5 C421,34.9852814 423.014719,37 425.5,37 C427.985281,37 430,34.9852814 430,32.5 Z" id="Oval-17-10" stroke="#E97F02" fill="#E97F02"></path>
                <path d="M397,66.5 C397,64.0147186 394.985281,62 392.5,62 C390.014719,62 388,64.0147186 388,66.5 C388,68.9852814 390.014719,71 392.5,71 C394.985281,71 397,68.9852814 397,66.5 Z" id="Oval-17-11" stroke="#E97F02" fill="#E97F02"></path>
                <path d="M364,89.5 C364,87.0147186 361.985281,85 359.5,85 C357.014719,85 355,87.0147186 355,89.5 C355,91.9852814 357.014719,94 359.5,94 C361.985281,94 364,91.9852814 364,89.5 Z" id="Oval-17-12" stroke="#E97F02" fill="#E97F02"></path>
                <path d="M318,66.5 C318,64.0147186 315.985281,62 313.5,62 C311.014719,62 309,64.0147186 309,66.5 C309,68.9852814 311.014719,71 313.5,71 C315.985281,71 318,68.9852814 318,66.5 Z" id="Oval-17-13" stroke="#E97F02" fill="#E97F02"></path>
                <path d="M78,52.5 C78,50.0147186 75.985281,48 73.5,48 C71.014719,48 69,50.0147186 69,52.5 C69,54.9852814 71.014719,57 73.5,57 C75.985281,57 78,54.9852814 78,52.5 Z" id="Oval-17-5" stroke="#E97F02" fill="#E97F02"></path>
                <path d="M112,80.5 C112,78.0147186 109.985281,76 107.5,76 C105.014719,76 103,78.0147186 103,80.5 C103,82.9852814 105.014719,85 107.5,85 C109.985281,85 112,82.9852814 112,80.5 Z" id="Oval-17-6" stroke="#E97F02" fill="#E97F02"></path>
                <path d="M52,94.5 C52,92.0147186 49.985281,90 47.5,90 C45.014719,90 43,92.0147186 43,94.5 C43,96.9852814 45.014719,99 47.5,99 C49.985281,99 52,96.9852814 52,94.5 Z" id="Oval-17-7" stroke="#E97F02" fill="#E97F02"></path>
                <path d="M251,57.5 C251,55.0147186 248.985281,53 246.5,53 C244.014719,53 242,55.0147186 242,57.5 C242,59.9852814 244.014719,62 246.5,62 C248.985281,62 251,59.9852814 251,57.5 Z" id="Oval-17-8" stroke="#E97F02" fill="#E97F02"></path>
                <path d="M178,92.5 C178,90.0147186 175.985281,88 173.5,88 C171.014719,88 169,90.0147186 169,92.5 C169,94.9852814 171.014719,97 173.5,97 C175.985281,97 178,94.9852814 178,92.5 Z" id="Oval-17-9" stroke="#E97F02" fill="#E97F02"></path>
                <path d="M556,89.5 C556,87.0147186 553.985281,85 551.5,85 C549.014719,85 547,87.0147186 547,89.5 C547,91.9852814 549.014719,94 551.5,94 C553.985281,94 556,91.9852814 556,89.5 Z" id="Oval-28" stroke="#E97F02" fill="#E97F02"></path>
                <path d="M486,76.5 C486,74.0147186 483.985281,72 481.5,72 C479.014719,72 477,74.0147186 477,76.5 C477,78.9852814 479.014719,81 481.5,81 C483.985281,81 486,78.9852814 486,76.5 Z" id="Oval-28-2" stroke="#E97F02" fill="#E97F02"></path>
                <path d="M214.5,118 C216.985281,118 219,115.985281 219,113.5 C219,111.014719 216.985281,109 214.5,109 C212.014719,109 210,111.014719 210,113.5 C210,115.985281 212.014719,118 214.5,118 L214.5,118 Z" id="Oval-40-10" stroke="#417505" fill="#417505"></path>
                <path d="M140.5,140 C142.985281,140 145,137.985281 145,135.5 C145,133.014719 142.985281,131 140.5,131 C138.014719,131 136,133.014719 136,135.5 C136,137.985281 138.014719,140 140.5,140 L140.5,140 Z" id="Oval-40-8" stroke="#417505" fill="#417505"></path>
                <path d="M173.5,137 C175.985281,137 178,134.985281 178,132.5 C178,130.014719 175.985281,128 173.5,128 C171.014719,128 169,130.014719 169,132.5 C169,134.985281 171.014719,137 173.5,137 L173.5,137 Z" id="Oval-40-7" stroke="#417505" fill="#417505"></path>
                <path d="M315.5,107 C317.985281,107 320,104.985281 320,102.5 C320,100.014719 317.985281,98 315.5,98 C313.014719,98 311,100.014719 311,102.5 C311,104.985281 313.014719,107 315.5,107 L315.5,107 Z" id="Oval-40-9" stroke="#417505" fill="#417505"></path>
                <path d="M74.5,126 C76.985281,126 79,123.985281 79,121.5 C79,119.014719 76.985281,117 74.5,117 C72.014719,117 70,119.014719 70,121.5 C70,123.985281 72.014719,126 74.5,126 L74.5,126 Z" id="Oval-40-11" stroke="#417505" fill="#417505"></path>
            </g>
        </g>
    </g>
</svg>