<?xml version="1.0" encoding="UTF-8" standalone="no"?>
<svg width="498.6px" height="133.2px" viewBox="0 0 554 148" version="1.1" xmlns="http://www.w3.org/2000/svg" xmlns:xlink="http://www.w3.org/1999/xlink" xmlns:sketch="http://www.bohemiancoding.com/sketch/ns">
    <!-- Generator: Sketch 3.0.4 (8054) - http://www.bohemiancoding.com/sketch -->
    <title>line</title>
    <desc></desc>
    <defs></defs>
    <g id="Page-1" stroke="none" stroke-width="1" fill="none" fill-rule="evenodd" sketch:type="MSPage">
        <g id="Group" sketch:type="MSLayerGroup" transform="translate(2.000000, 2.000000)" stroke-width="3">
            <path d="M1.9375,115.304688 L45.90625,90.4335938 L71.03125,48.0507812 L106.527344,77.015625 L135.398438,55.7734375 L171.851563,88.3398438 L204.164062,93.2265625 L244.246094,53.0976562 L275.257812,0.94140625 L312.59375,62.8671875 L357.5625,86.25 L389.96875,64.3125 L424.421875,27.2265625 L479.761719,71.1484375 L546.886719,86.25" id="Path-8" stroke-opacity="0.7" stroke="#E97F02" sketch:type="MSShapeGroup"></path>
            <path d="M3.73046875,129.082031 L45.1601562,139.851562 L73.03125,117.519531 L141.679688,131.429688 L171.945313,128.636719 L212.378906,110.144531 L275.09375,116.214844 L313.734375,97.7226562 L356.5625,114.074219 L400.15625,100.558594 L464.363281,56.78125 L522.195312,73.5742188 L541.34375,102.746094" id="Path-9" stroke-opacity="0.65" stroke="#417505" sketch:type="MSShapeGroup"></path>
            <path d="M4.5,118 C6.98528137,118 9,115.985281 9,113.5 C9,111.014719 6.98528137,109 4.5,109 C2.01471863,109 0,111.014719 0,113.5 C0,115.985281 2.01471863,118 4.5,118 Z M4.5,118 C6.98528137,118 9,115.985281 9,113.5 C9,111.014719 6.98528137,109 4.5,109 C2.01471863,109 0,111.014719 0,113.5 C0,115.985281 2.01471863,118 4.5,118 Z M4.5,118 C6.98528137,118 9,115.985281 9,113.5 C9,111.014719 6.98528137,109 4.5,109 C2.01471863,109 0,111.014719 0,113.5 C0,115.985281 2.01471863,118 4.5,118 Z" id="Oval-14" stroke="#E97F02" fill="#E97F02" sketch:type="MSShapeGroup"></path>
            <path d="M6.5,136 C8.98528137,136 11,133.985281 11,131.5 C11,129.014719 8.98528137,127 6.5,127 C4.01471863,127 2,129.014719 2,131.5 C2,133.985281 4.01471863,136 6.5,136 Z M6.5,136 C8.98528137,136 11,133.985281 11,131.5 C11,129.014719 8.98528137,127 6.5,127 C4.01471863,127 2,129.014719 2,131.5 C2,133.985281 4.01471863,136 6.5,136 Z M6.5,136 C8.98528137,136 11,133.985281 11,131.5 C11,129.014719 8.98528137,127 6.5,127 C4.01471863,127 2,129.014719 2,131.5 C2,133.985281 4.01471863,136 6.5,136 Z" id="Oval-29" stroke="#417505" fill="#417505" sketch:type="MSShapeGroup"></path>
            <path d="M42.5,144 C44.9852814,144 47,141.985281 47,139.5 C47,137.014719 44.9852814,135 42.5,135 C40.0147186,135 38,137.014719 38,139.5 C38,141.985281 40.0147186,144 42.5,144 Z M42.5,144 C44.9852814,144 47,141.985281 47,139.5 C47,137.014719 44.9852814,135 42.5,135 C40.0147186,135 38,137.014719 38,139.5 C38,141.985281 40.0147186,144 42.5,144 Z M42.5,144 C44.9852814,144 47,141.985281 47,139.5 C47,137.014719 44.9852814,135 42.5,135 C40.0147186,135 38,137.014719 38,139.5 C38,141.985281 40.0147186,144 42.5,144 Z" id="Oval-30" stroke="#417505" fill="#417505" sketch:type="MSShapeGroup"></path>
            <path d="M73.5,122 C75.9852814,122 78,119.985281 78,117.5 C78,115.014719 75.9852814,113 73.5,113 C71.0147186,113 69,115.014719 69,117.5 C69,119.985281 71.0147186,122 73.5,122 Z M73.5,122 C75.9852814,122 78,119.985281 78,117.5 C78,115.014719 75.9852814,113 73.5,113 C71.0147186,113 69,115.014719 69,117.5 C69,119.985281 71.0147186,122 73.5,122 Z M73.5,122 C75.9852814,122 78,119.985281 78,117.5 C78,115.014719 75.9852814,113 73.5,113 C71.0147186,113 69,115.014719 69,117.5 C69,119.985281 71.0147186,122 73.5,122 Z" id="Oval-31" stroke="#417505" fill="#417505" sketch:type="MSShapeGroup"></path>
            <path d="M139.5,136 C141.985281,136 144,133.985281 144,131.5 C144,129.014719 141.985281,127 139.5,127 C137.014719,127 135,129.014719 135,131.5 C135,133.985281 137.014719,136 139.5,136 Z M139.5,136 C141.985281,136 144,133.985281 144,131.5 C144,129.014719 141.985281,127 139.5,127 C137.014719,127 135,129.014719 135,131.5 C135,133.985281 137.014719,136 139.5,136 Z M139.5,136 C141.985281,136 144,133.985281 144,131.5 C144,129.014719 141.985281,127 139.5,127 C137.014719,127 135,129.014719 135,131.5 C135,133.985281 137.014719,136 139.5,136 Z" id="Oval-32" stroke="#417505" fill="#417505" sketch:type="MSShapeGroup"></path>
            <path d="M173.5,133 C175.985281,133 178,130.985281 178,128.5 C178,126.014719 175.985281,124 173.5,124 C171.014719,124 169,126.014719 169,128.5 C169,130.985281 171.014719,133 173.5,133 Z M173.5,133 C175.985281,133 178,130.985281 178,128.5 C178,126.014719 175.985281,124 173.5,124 C171.014719,124 169,126.014719 169,128.5 C169,130.985281 171.014719,133 173.5,133 Z M173.5,133 C175.985281,133 178,130.985281 178,128.5 C178,126.014719 175.985281,124 173.5,124 C171.014719,124 169,126.014719 169,128.5 C169,130.985281 171.014719,133 173.5,133 Z" id="Oval-33" stroke="#417505" fill="#417505" sketch:type="MSShapeGroup"></path>
            <path d="M211.5,115 C213.985281,115 216,112.985281 216,110.5 C216,108.014719 213.985281,106 211.5,106 C209.014719,106 207,108.014719 207,110.5 C207,112.985281 209.014719,115 211.5,115 Z M211.5,115 C213.985281,115 216,112.985281 216,110.5 C216,108.014719 213.985281,106 211.5,106 C209.014719,106 207,108.014719 207,110.5 C207,112.985281 209.014719,115 211.5,115 Z M211.5,115 C213.985281,115 216,112.985281 216,110.5 C216,108.014719 213.985281,106 211.5,106 C209.014719,106 207,108.014719 207,110.5 C207,112.985281 209.014719,115 211.5,115 Z" id="Oval-34" stroke="#417505" fill="#417505" sketch:type="MSShapeGroup"></path>
            <path d="M276.5,120 C278.985281,120 281,117.985281 281,115.5 C281,113.014719 278.985281,111 276.5,111 C274.014719,111 272,113.014719 272,115.5 C272,117.985281 274.014719,120 276.5,120 Z M276.5,120 C278.985281,120 281,117.985281 281,115.5 C281,113.014719 278.985281,111 276.5,111 C274.014719,111 272,113.014719 272,115.5 C272,117.985281 274.014719,120 276.5,120 Z M276.5,120 C278.985281,120 281,117.985281 281,115.5 C281,113.014719 278.985281,111 276.5,111 C274.014719,111 272,113.014719 272,115.5 C272,117.985281 274.014719,120 276.5,120 Z" id="Oval-35" stroke="#417505" fill="#417505" sketch:type="MSShapeGroup"></path>
            <path d="M314.5,101 C316.985281,101 319,98.9852814 319,96.5 C319,94.0147186 316.985281,92 314.5,92 C312.014719,92 310,94.0147186 310,96.5 C310,98.9852814 312.014719,101 314.5,101 Z M314.5,101 C316.985281,101 319,98.9852814 319,96.5 C319,94.0147186 316.985281,92 314.5,92 C312.014719,92 310,94.0147186 310,96.5 C310,98.9852814 312.014719,101 314.5,101 Z M314.5,101 C316.985281,101 319,98.9852814 319,96.5 C319,94.0147186 316.985281,92 314.5,92 C312.014719,92 310,94.0147186 310,96.5 C310,98.9852814 312.014719,101 314.5,101 Z" id="Oval-36" stroke="#417505" fill="#417505" sketch:type="MSShapeGroup"></path>
            <path d="M356.5,118 C358.985281,118 361,115.985281 361,113.5 C361,111.014719 358.985281,109 356.5,109 C354.014719,109 352,111.014719 352,113.5 C352,115.985281 354.014719,118 356.5,118 Z M356.5,118 C358.985281,118 361,115.985281 361,113.5 C361,111.014719 358.985281,109 356.5,109 C354.014719,109 352,111.014719 352,113.5 C352,115.985281 354.014719,118 356.5,118 Z M356.5,118 C358.985281,118 361,115.985281 361,113.5 C361,111.014719 358.985281,109 356.5,109 C354.014719,109 352,111.014719 352,113.5 C352,115.985281 354.014719,118 356.5,118 Z" id="Oval-37" stroke="#417505" fill="#417505" sketch:type="MSShapeGroup"></path>
            <path d="M399.5,105 C401.985281,105 404,102.985281 404,100.5 C404,98.0147186 401.985281,96 399.5,96 C397.014719,96 395,98.0147186 395,100.5 C395,102.985281 397.014719,105 399.5,105 Z M399.5,105 C401.985281,105 404,102.985281 404,100.5 C404,98.0147186 401.985281,96 399.5,96 C397.014719,96 395,98.0147186 395,100.5 C395,102.985281 397.014719,105 399.5,105 Z M399.5,105 C401.985281,105 404,102.985281 404,100.5 C404,98.0147186 401.985281,96 399.5,96 C397.014719,96 395,98.0147186 395,100.5 C395,102.985281 397.014719,105 399.5,105 Z" id="Oval-38" stroke="#417505" fill="#417505" sketch:type="MSShapeGroup"></path>
            <path d="M464.5,61 C466.985281,61 469,58.9852814 469,56.5 C469,54.0147186 466.985281,52 464.5,52 C462.014719,52 460,54.0147186 460,56.5 C460,58.9852814 462.014719,61 464.5,61 Z M464.5,61 C466.985281,61 469,58.9852814 469,56.5 C469,54.0147186 466.985281,52 464.5,52 C462.014719,52 460,54.0147186 460,56.5 C460,58.9852814 462.014719,61 464.5,61 Z M464.5,61 C466.985281,61 469,58.9852814 469,56.5 C469,54.0147186 466.985281,52 464.5,52 C462.014719,52 460,54.0147186 460,56.5 C460,58.9852814 462.014719,61 464.5,61 Z" id="Oval-39" stroke="#417505" fill="#417505" sketch:type="MSShapeGroup"></path>
            <path d="M521.5,77 C523.985281,77 526,74.9852814 526,72.5 C526,70.0147186 523.985281,68 521.5,68 C519.014719,68 517,70.0147186 517,72.5 C517,74.9852814 519.014719,77 521.5,77 Z M521.5,77 C523.985281,77 526,74.9852814 526,72.5 C526,70.0147186 523.985281,68 521.5,68 C519.014719,68 517,70.0147186 517,72.5 C517,74.9852814 519.014719,77 521.5,77 Z M521.5,77 C523.985281,77 526,74.9852814 526,72.5 C526,70.0147186 523.985281,68 521.5,68 C519.014719,68 517,70.0147186 517,72.5 C517,74.9852814 519.014719,77 521.5,77 Z" id="Oval-40" stroke="#417505" fill="#417505" sketch:type="MSShapeGroup"></path>
            <path d="M544.5,111 C546.985281,111 549,108.985281 549,106.5 C549,104.014719 546.985281,102 544.5,102 C542.014719,102 540,104.014719 540,106.5 C540,108.985281 542.014719,111 544.5,111 Z M544.5,111 C546.985281,111 549,108.985281 549,106.5 C549,104.014719 546.985281,102 544.5,102 C542.014719,102 540,104.014719 540,106.5 C540,108.985281 542.014719,111 544.5,111 Z M544.5,111 C546.985281,111 549,108.985281 549,106.5 C549,104.014719 546.985281,102 544.5,102 C542.014719,102 540,104.014719 540,106.5 C540,108.985281 542.014719,111 544.5,111 Z" id="Oval-41" stroke="#417505" fill="#417505" sketch:type="MSShapeGroup"></path>
            <path d="M46.5,92 C48.9852814,92 51,89.9852814 51,87.5 C51,85.0147186 48.9852814,83 46.5,83 C44.0147186,83 42,85.0147186 42,87.5 C42,89.9852814 44.0147186,92 46.5,92 Z M46.5,92 C48.9852814,92 51,89.9852814 51,87.5 C51,85.0147186 48.9852814,83 46.5,83 C44.0147186,83 42,85.0147186 42,87.5 C42,89.9852814 44.0147186,92 46.5,92 Z M46.5,92 C48.9852814,92 51,89.9852814 51,87.5 C51,85.0147186 48.9852814,83 46.5,83 C44.0147186,83 42,85.0147186 42,87.5 C42,89.9852814 44.0147186,92 46.5,92 Z" id="Oval-15" stroke="#E97F02" fill="#E97F02" sketch:type="MSShapeGroup"></path>
            <path d="M70.5,54 C72.9852814,54 75,51.9852814 75,49.5 C75,47.0147186 72.9852814,45 70.5,45 C68.0147186,45 66,47.0147186 66,49.5 C66,51.9852814 68.0147186,54 70.5,54 Z M70.5,54 C72.9852814,54 75,51.9852814 75,49.5 C75,47.0147186 72.9852814,45 70.5,45 C68.0147186,45 66,47.0147186 66,49.5 C66,51.9852814 68.0147186,54 70.5,54 Z M70.5,54 C72.9852814,54 75,51.9852814 75,49.5 C75,47.0147186 72.9852814,45 70.5,45 C68.0147186,45 66,47.0147186 66,49.5 C66,51.9852814 68.0147186,54 70.5,54 Z" id="Oval-16" stroke="#E97F02" fill="#E97F02" sketch:type="MSShapeGroup"></path>
            <path d="M107.5,81 C109.985281,81 112,78.9852814 112,76.5 C112,74.0147186 109.985281,72 107.5,72 C105.014719,72 103,74.0147186 103,76.5 C103,78.9852814 105.014719,81 107.5,81 Z M107.5,81 C109.985281,81 112,78.9852814 112,76.5 C112,74.0147186 109.985281,72 107.5,72 C105.014719,72 103,74.0147186 103,76.5 C103,78.9852814 105.014719,81 107.5,81 Z M107.5,81 C109.985281,81 112,78.9852814 112,76.5 C112,74.0147186 109.985281,72 107.5,72 C105.014719,72 103,74.0147186 103,76.5 C103,78.9852814 105.014719,81 107.5,81 Z" id="Oval-17" stroke="#E97F02" fill="#E97F02" sketch:type="MSShapeGroup"></path>
            <path d="M137.5,59 C139.985281,59 142,56.9852814 142,54.5 C142,52.0147186 139.985281,50 137.5,50 C135.014719,50 133,52.0147186 133,54.5 C133,56.9852814 135.014719,59 137.5,59 Z M137.5,59 C139.985281,59 142,56.9852814 142,54.5 C142,52.0147186 139.985281,50 137.5,50 C135.014719,50 133,52.0147186 133,54.5 C133,56.9852814 135.014719,59 137.5,59 Z M137.5,59 C139.985281,59 142,56.9852814 142,54.5 C142,52.0147186 139.985281,50 137.5,50 C135.014719,50 133,52.0147186 133,54.5 C133,56.9852814 135.014719,59 137.5,59 Z" id="Oval-18" stroke="#E97F02" fill="#E97F02" sketch:type="MSShapeGroup"></path>
            <path d="M171.5,91 C173.985281,91 176,88.9852814 176,86.5 C176,84.0147186 173.985281,82 171.5,82 C169.014719,82 167,84.0147186 167,86.5 C167,88.9852814 169.014719,91 171.5,91 Z M171.5,91 C173.985281,91 176,88.9852814 176,86.5 C176,84.0147186 173.985281,82 171.5,82 C169.014719,82 167,84.0147186 167,86.5 C167,88.9852814 169.014719,91 171.5,91 Z M171.5,91 C173.985281,91 176,88.9852814 176,86.5 C176,84.0147186 173.985281,82 171.5,82 C169.014719,82 167,84.0147186 167,86.5 C167,88.9852814 169.014719,91 171.5,91 Z" id="Oval-19" stroke="#E97F02" fill="#E97F02" sketch:type="MSShapeGroup"></path>
            <path d="M204.5,97 C206.985281,97 209,94.9852814 209,92.5 C209,90.0147186 206.985281,88 204.5,88 C202.014719,88 200,90.0147186 200,92.5 C200,94.9852814 202.014719,97 204.5,97 Z M204.5,97 C206.985281,97 209,94.9852814 209,92.5 C209,90.0147186 206.985281,88 204.5,88 C202.014719,88 200,90.0147186 200,92.5 C200,94.9852814 202.014719,97 204.5,97 Z M204.5,97 C206.985281,97 209,94.9852814 209,92.5 C209,90.0147186 206.985281,88 204.5,88 C202.014719,88 200,90.0147186 200,92.5 C200,94.9852814 202.014719,97 204.5,97 Z" id="Oval-20" stroke="#E97F02" fill="#E97F02" sketch:type="MSShapeGroup"></path>
            <path d="M244.5,55 C246.985281,55 249,52.9852814 249,50.5 C249,48.0147186 246.985281,46 244.5,46 C242.014719,46 240,48.0147186 240,50.5 C240,52.9852814 242.014719,55 244.5,55 Z M244.5,55 C246.985281,55 249,52.9852814 249,50.5 C249,48.0147186 246.985281,46 244.5,46 C242.014719,46 240,48.0147186 240,50.5 C240,52.9852814 242.014719,55 244.5,55 Z M244.5,55 C246.985281,55 249,52.9852814 249,50.5 C249,48.0147186 246.985281,46 244.5,46 C242.014719,46 240,48.0147186 240,50.5 C240,52.9852814 242.014719,55 244.5,55 Z" id="Oval-21" stroke="#E97F02" fill="#E97F02" sketch:type="MSShapeGroup"></path>
            <path d="M275.5,9 C277.985281,9 280,6.98528137 280,4.5 C280,2.01471863 277.985281,0 275.5,0 C273.014719,0 271,2.01471863 271,4.5 C271,6.98528137 273.014719,9 275.5,9 Z M275.5,9 C277.985281,9 280,6.98528137 280,4.5 C280,2.01471863 277.985281,0 275.5,0 C273.014719,0 271,2.01471863 271,4.5 C271,6.98528137 273.014719,9 275.5,9 Z M275.5,9 C277.985281,9 280,6.98528137 280,4.5 C280,2.01471863 277.985281,0 275.5,0 C273.014719,0 271,2.01471863 271,4.5 C271,6.98528137 273.014719,9 275.5,9 Z" id="Oval-22" stroke="#E97F02" fill="#E97F02" sketch:type="MSShapeGroup"></path>
            <path d="M312.5,66 C314.985281,66 317,63.9852814 317,61.5 C317,59.0147186 314.985281,57 312.5,57 C310.014719,57 308,59.0147186 308,61.5 C308,63.9852814 310.014719,66 312.5,66 Z M312.5,66 C314.985281,66 317,63.9852814 317,61.5 C317,59.0147186 314.985281,57 312.5,57 C310.014719,57 308,59.0147186 308,61.5 C308,63.9852814 310.014719,66 312.5,66 Z M312.5,66 C314.985281,66 317,63.9852814 317,61.5 C317,59.0147186 314.985281,57 312.5,57 C310.014719,57 308,59.0147186 308,61.5 C308,63.9852814 310.014719,66 312.5,66 Z" id="Oval-23" stroke="#E97F02" fill="#E97F02" sketch:type="MSShapeGroup"></path>
            <path d="M357.5,90 C359.985281,90 362,87.9852814 362,85.5 C362,83.0147186 359.985281,81 357.5,81 C355.014719,81 353,83.0147186 353,85.5 C353,87.9852814 355.014719,90 357.5,90 Z M357.5,90 C359.985281,90 362,87.9852814 362,85.5 C362,83.0147186 359.985281,81 357.5,81 C355.014719,81 353,83.0147186 353,85.5 C353,87.9852814 355.014719,90 357.5,90 Z M357.5,90 C359.985281,90 362,87.9852814 362,85.5 C362,83.0147186 359.985281,81 357.5,81 C355.014719,81 353,83.0147186 353,85.5 C353,87.9852814 355.014719,90 357.5,90 Z" id="Oval-24" stroke="#E97F02" fill="#E97F02" sketch:type="MSShapeGroup"></path>
            <path d="M391.5,68 C393.985281,68 396,65.9852814 396,63.5 C396,61.0147186 393.985281,59 391.5,59 C389.014719,59 387,61.0147186 387,63.5 C387,65.9852814 389.014719,68 391.5,68 Z M391.5,68 C393.985281,68 396,65.9852814 396,63.5 C396,61.0147186 393.985281,59 391.5,59 C389.014719,59 387,61.0147186 387,63.5 C387,65.9852814 389.014719,68 391.5,68 Z M391.5,68 C393.985281,68 396,65.9852814 396,63.5 C396,61.0147186 393.985281,59 391.5,59 C389.014719,59 387,61.0147186 387,63.5 C387,65.9852814 389.014719,68 391.5,68 Z" id="Oval-25" stroke="#E97F02" fill="#E97F02" sketch:type="MSShapeGroup"></path>
            <path d="M425.5,30 C427.985281,30 430,27.9852814 430,25.5 C430,23.0147186 427.985281,21 425.5,21 C423.014719,21 421,23.0147186 421,25.5 C421,27.9852814 423.014719,30 425.5,30 Z M425.5,30 C427.985281,30 430,27.9852814 430,25.5 C430,23.0147186 427.985281,21 425.5,21 C423.014719,21 421,23.0147186 421,25.5 C421,27.9852814 423.014719,30 425.5,30 Z M425.5,30 C427.985281,30 430,27.9852814 430,25.5 C430,23.0147186 427.985281,21 425.5,21 C423.014719,21 421,23.0147186 421,25.5 C421,27.9852814 423.014719,30 425.5,30 Z" id="Oval-26" stroke="#E97F02" fill="#E97F02" sketch:type="MSShapeGroup"></path>
            <path d="M477.5,74 C479.985281,74 482,71.9852814 482,69.5 C482,67.0147186 479.985281,65 477.5,65 C475.014719,65 473,67.0147186 473,69.5 C473,71.9852814 475.014719,74 477.5,74 Z M477.5,74 C479.985281,74 482,71.9852814 482,69.5 C482,67.0147186 479.985281,65 477.5,65 C475.014719,65 473,67.0147186 473,69.5 C473,71.9852814 475.014719,74 477.5,74 Z M477.5,74 C479.985281,74 482,71.9852814 482,69.5 C482,67.0147186 479.985281,65 477.5,65 C475.014719,65 473,67.0147186 473,69.5 C473,71.9852814 475.014719,74 477.5,74 Z" id="Oval-27" stroke="#E97F02" fill="#E97F02" sketch:type="MSShapeGroup"></path>
            <path d="M545.5,88 C547.985281,88 550,85.9852814 550,83.5 C550,81.0147186 547.985281,79 545.5,79 C543.014719,79 541,81.0147186 541,83.5 C541,85.9852814 543.014719,88 545.5,88 Z M545.5,88 C547.985281,88 550,85.9852814 550,83.5 C550,81.0147186 547.985281,79 545.5,79 C543.014719,79 541,81.0147186 541,83.5 C541,85.9852814 543.014719,88 545.5,88 Z M545.5,88 C547.985281,88 550,85.9852814 550,83.5 C550,81.0147186 547.985281,79 545.5,79 C543.014719,79 541,81.0147186 541,83.5 C541,85.9852814 543.014719,88 545.5,88 Z" id="Oval-28" stroke="#E97F02" fill="#E97F02" sketch:type="MSShapeGroup"></path>
        </g>
    </g>
</svg>