<?xml version="1.0" encoding="UTF-8" standalone="no"?>
<svg width="170px" height="37px" viewBox="0 0 170 37" version="1.1" xmlns="http://www.w3.org/2000/svg" xmlns:xlink="http://www.w3.org/1999/xlink" xmlns:sketch="http://www.bohemiancoding.com/sketch/ns">
    <!-- Generator: Sketch 3.0 (7574) - http://www.bohemiancoding.com/sketch -->
    <title>logo2</title>
    <description>Created with Sketch.</description>
    <defs></defs>
    <g id="Page-1" stroke="none" stroke-width="1" fill="none" fill-rule="evenodd" sketch:type="MSPage">
        <g id="logo" sketch:type="MSLayerGroup" transform="translate(3.000000, 3.000000)">
            <g id="Path-1-+-Path-2-+-Path-3" transform="translate(0.000000, 3.000000)" stroke-width="5" sketch:type="MSShapeGroup">
                <path d="M2.48653194,0.204450102 C2.48653194,0.204450102 7.47874615,4.06796828 9.56330984,4.98876644 C12.1965981,6.15194848 16.6400879,6.4563907 16.6400879,6.4563907" id="Path-1" stroke="#F38630"></path>
                <path d="M2.48653194,21.3921165 C2.48653194,21.3921165 6.31460415,24.3601677 8.66618059,25.7176034 C9.00004535,25.9103252 9.30414858,26.070582 9.56330984,26.1852708 C12.1965981,27.3506015 16.6400879,27.6556062 16.6400879,27.6556062" id="Path-2" stroke="#9AB270" transform="translate(9.486532, 24.397775) scale(1, -1) translate(-9.486532, -24.397775) "></path>
                <path d="M0.123504612,15 L9.05102296,15 L16.2857932,15" id="Path-3" stroke="#9AB270"></path>
            </g>
            <g id="AStream" transform="translate(21.000000, 0.000000)" sketch:type="MSShapeGroup">
                <path d="M42.336,6.768 C41.0879938,5.0079912 39.5040096,4.128 37.584,4.128 C36.3679939,4.128 35.3440042,4.49599632 34.512,5.232 C33.6799958,5.96800368 33.264,6.95199384 33.264,8.184 C33.264,9.41600616 34.7759849,10.8799915 37.8,12.576 C40.8240151,14.2720085 42.3519998,15.12 42.384,15.12 C44.5280107,16.720008 45.6,18.6079891 45.6,20.784 C45.6,23.7600149 44.7440086,26.1679908 43.032,28.008 C41.3199914,29.8480092 38.9760149,30.768 36,30.768 C32.2239811,30.768 29.2480109,28.8800189 27.072,25.104 L30.192,22.032 C30.6080021,23.1520056 31.3759944,24.1759954 32.496,25.104 C33.6160056,26.0320046 34.7679941,26.496 35.952,26.496 C37.360007,26.496 38.4719959,26.0160048 39.288,25.056 C40.1040041,24.0959952 40.512,22.9280069 40.512,21.552 C40.512,20.559995 40.208003,19.6880038 39.6,18.936 C38.991997,18.1839962 36.9360175,17.0320078 33.432,15.48 C29.9279825,13.9279922 28.176,11.7120144 28.176,8.832 C28.176,6.36798768 28.9839919,4.2960084 30.6,2.616 C32.2160081,0.9359916 34.2399878,0.096 36.672,0.096 C40.0320168,0.096 42.6879902,1.18398912 44.64,3.36 L42.336,6.768 Z M54.096,30 L49.44,30 L49.44,15.216 L47.184,15.216 L47.184,11.424 L49.44,11.424 L49.44,4.608 L54.096,4.608 L54.096,11.424 L57.792,11.424 L57.792,15.216 L54.096,15.216 L54.096,30 Z M63.648,13.008 C64.8320059,11.2799914 66.6879874,10.416 69.216,10.416 C70.016004,10.416 70.7519966,10.5759984 71.424,10.896 L70.848,15.12 C70.1439965,14.6719978 69.3760042,14.448 68.544,14.448 C65.2799837,14.448 63.648,16.7839766 63.648,21.456 L63.648,30 L58.992,30 L58.992,11.04 L63.648,11.04 L63.648,13.008 Z M76.752,20.976 C76.752,22.8000091 77.151996,24.3039941 77.952,25.488 C78.752004,26.6720059 79.855993,27.264 81.264,27.264 C83.472011,27.264 84.879997,26.1760109 85.488,24 L89.904,24.72 C88.4639928,28.6560197 85.5840216,30.624 81.264,30.624 C78.3839856,30.624 76.0880086,29.7040092 74.376,27.864 C72.6639914,26.0239908 71.808,23.6320147 71.808,20.688 C71.808,17.5839845 72.6319918,15.0960094 74.28,13.224 C75.9280082,11.3519906 78.1679858,10.416 81,10.416 C83.8320142,10.416 86.0399921,11.3039911 87.624,13.08 C89.2080079,14.8560089 90,17.2799846 90,20.352 L90,20.976 L76.752,20.976 Z M85.68,18.384 C85.68,17.0719934 85.2720041,15.920005 84.456,14.928 C83.6399959,13.935995 82.5840065,13.44 81.288,13.44 C79.9919935,13.44 78.9360041,13.9599948 78.12,15 C77.3039959,16.0400052 76.896,17.1679939 76.896,18.384 L85.68,18.384 Z M110.448,30 L105.888,30 L105.888,28.272 C104.543993,29.8400078 102.544013,30.624 99.888,30.624 C97.2319867,30.624 95.1120079,29.6000102 93.528,27.552 C91.9439921,25.5039898 91.152,23.1040138 91.152,20.352 C91.152,17.5999862 91.9599919,15.2560097 93.576,13.32 C95.1920081,11.3839903 97.2639874,10.416 99.792,10.416 C102.480013,10.416 104.511993,11.215992 105.888,12.816 L105.888,11.04 L110.448,11.04 L110.448,30 Z M106.416,20.496 C106.416,18.7359912 105.920005,17.2880057 104.928,16.152 C103.935995,15.0159943 102.664008,14.448 101.112,14.448 C99.5599922,14.448 98.2960049,14.9999945 97.32,16.104 C96.3439951,17.2080055 95.856,18.6719909 95.856,20.496 C95.856,22.3200091 96.351995,23.7919944 97.344,24.912 C98.336005,26.0320056 99.6159922,26.592 101.184,26.592 C102.752008,26.592 104.015995,26.0480054 104.976,24.96 C105.936005,23.8719946 106.416,22.3840094 106.416,20.496 Z M118.992,12.72 C120.176006,11.1839923 121.999988,10.416 124.464,10.416 C126.608011,10.416 128.303994,11.4079901 129.552,13.392 C130.768006,11.4079901 132.735986,10.416 135.456,10.416 C139.45602,10.416 141.456,13.0079741 141.456,18.192 L141.456,30 L136.848,30 L136.848,20.016 C136.848,15.9839798 135.744011,13.968 133.536,13.968 C131.327989,13.968 130.224,16.2079776 130.224,20.688 L130.224,30 L125.568,30 L125.568,20.4 C125.568,16.1119786 124.59201,13.968 122.64,13.968 C120.207988,13.968 118.992,16.2079776 118.992,20.688 L118.992,30 L114.336,30 L114.336,11.04 L118.992,11.04 L118.992,12.72 Z" id="Stream" fill="#9AB270"></path>
                <path d="M7.488,23.472 L4.896,30 L-0.336,30 L10.992,0.096 L15.408,0.096 L26.448,30 L21.168,30 L18.72,23.472 L7.488,23.472 Z M12.912,7.248 L8.688,19.584 L17.376,19.584 L12.912,7.248 Z" id="A" fill="#F38630"></path>
            </g>
        </g>
    </g>
</svg>