<?xml version="1.0" encoding="UTF-8" standalone="no"?>
<svg width="487.8px" height="152.1px" viewBox="0 0 487.8 152.1" version="1.1" xmlns="http://www.w3.org/2000/svg" xmlns:xlink="http://www.w3.org/1999/xlink" xmlns:sketch="http://www.bohemiancoding.com/sketch/ns">
    <!-- Generator: Sketch 3.0.4 (8054) - http://www.bohemiancoding.com/sketch -->
    <title>wave</title>
    <desc></desc>
    <defs></defs>
    <g id="Page-1" stroke="none" stroke-width="1" fill="none" fill-rule="evenodd" sketch:type="MSPage">
        <g id="Artboard-1" sketch:type="MSArtboardGroup" transform="translate(-9.000000, -20.000000)" fill="#B5D6EC">
            <g id="Path-4-+-Path-5-+-Path-6" sketch:type="MSLayerGroup" transform="translate(9.000000, 21.000000)">
                <path d="M37.7773002,50.0202105 C47.4541813,44.766582 59.9587959,28.4997653 59.9587959,28.4997653 C59.9587959,28.4997653 64.2369895,22.4909495 69.9781059,20.4081276 C73.3180834,19.1964159 107.829352,23.397696 112.775881,20.4081276 C117.207217,17.7299299 122.120142,16.5670465 130.747263,8.29907262 C139.374384,0.0310987225 148.109507,-0.034588575 148.109507,-0.034588575 C148.109507,-0.034588575 151.450843,0.442483648 155.47616,1.87931096 C157.876197,2.73599815 160.983804,7.5919368 162.16688,8.29907262 C163.243691,8.94269281 170.697928,17.2958404 178.283121,24.4392694 C185.596611,31.3268183 193.230055,33.8843247 194.397547,34.5724062 C198.215312,36.8224718 202.022645,37.0448142 202.693156,37.4605577 C204.220039,38.4072873 210.326658,38.317713 215.51211,37.4605577 C229.228596,35.1932227 246.818842,28.4997653 246.818842,28.4997653 C246.818842,28.4997653 255.558173,25.1472896 259.738581,24.4392694 C263.549719,23.7937911 270.793482,24.4392696 270.793482,24.4392696 C270.793482,24.4392696 284.035882,26.6793173 287.607966,28.4997689 C291.486935,30.4766194 298.649494,34.8077997 302.723231,37.4605577 C310.834459,42.7424717 321.167841,37.4605577 321.167841,37.4605577 C321.167841,37.4605577 330.838435,34.4533119 339.868952,28.4997645 C345.898331,24.5247771 360.214844,16.5670466 360.214844,16.5670466 C360.214844,16.5670466 366.059385,10.9798189 376.350733,5.17155355 C378.565561,3.92154179 389.887449,-0.8218378 400.514521,-0.0345885793 C410.169352,0.680637437 419.054999,6.63529648 423.743494,11.0771422 C427.660127,14.7877308 434.934917,21.2353955 441.641596,24.4392701 C451.800145,29.2921508 456.505671,28.4997648 462.303583,28.4997648 C468.101496,28.4997648 475.134759,20.5196399 480.86883,18.0622247 C483.505775,16.9321258 487.088382,14.7043946 490.835535,14.5165228 C493.893856,14.3631871 498.007468,14.0418498 499.663325,14.5165228 C504.068973,15.7794594 513.497448,19.9706178 514.990107,20.4081281 C519.486831,21.7261541 541.132807,37.4605592 541.132807,37.4605592 L541.132812,165.353166 L0.454157184,165.353166 L0.454157184,50.0202115 C0.454157184,50.0202115 27.1299625,55.8007048 37.7773002,50.0202105 Z" id="Path-4" fill-opacity="0.5" sketch:type="MSShapeGroup"></path>
                <path d="M37.7773002,89.7405014 C47.4541813,86.3017628 59.9587959,75.6543919 59.9587959,75.6543919 C59.9587959,75.6543919 64.2369895,71.7213487 69.9781059,70.3580472 C73.3180834,69.5649268 107.829352,72.3148556 112.775881,70.3580472 C117.207217,68.605045 122.120142,67.843885 130.747263,62.4321203 C139.374384,57.0203555 148.109507,56.9773602 148.109507,56.9773602 C148.109507,56.9773602 151.450843,57.2896257 155.47616,58.2300944 C157.876197,58.7908352 160.983804,61.9692677 162.16688,62.4321203 C163.243691,62.8533989 170.697928,68.3209137 178.283121,72.9966127 C185.596611,77.5048265 193.230055,79.1788307 194.397547,79.6292113 C198.215312,81.1019816 202.022645,81.2475148 202.693156,81.5196378 C204.220039,82.1393153 210.326658,82.0806849 215.51211,81.5196378 C229.228596,80.0355639 246.818842,75.6543919 246.818842,75.6543919 C246.818842,75.6543919 255.558173,73.4600441 259.738581,72.9966127 C263.549719,72.5741178 270.793482,72.9966128 270.793482,72.9966128 C270.793482,72.9966128 284.035882,74.4628259 287.607966,75.6543942 C291.486935,76.9483327 298.649494,79.7832871 302.723231,81.5196378 C310.834459,84.9768905 321.167841,81.5196378 321.167841,81.5196378 C321.167841,81.5196378 330.838435,79.5512587 339.868952,75.6543913 C345.898331,73.0525814 360.214844,67.8438851 360.214844,67.8438851 C360.214844,67.8438851 366.059385,64.1867906 376.350733,60.3850169 C378.565561,59.5668274 389.887449,56.4620698 400.514521,56.9773602 C410.169352,57.4455081 419.054999,61.3431032 423.743494,64.2504931 C427.660127,66.679242 434.934917,70.8995316 441.641596,72.9966131 C451.800145,76.1730442 456.505671,75.6543915 462.303583,75.6543915 C468.101496,75.6543915 475.134759,70.431037 480.86883,68.8225471 C483.505775,68.082846 487.088382,66.6246947 490.835535,66.501724 C493.893856,66.4013588 498.007468,66.191029 499.663325,66.501724 C504.068973,67.3283734 513.497448,70.0716771 514.990107,70.3580475 C519.486831,71.2207554 541.132807,81.5196388 541.132807,81.5196388 L541.132812,165.231163 L0.454157184,165.231163 L0.454157184,89.7405021 C0.454157184,89.7405021 27.1299625,93.5240977 37.7773002,89.7405014 Z" id="Path-5" fill-opacity="0.6" sketch:type="MSShapeGroup"></path>
                <path d="M37.7773002,108.464834 C47.4541813,105.79026 59.9587959,97.5089714 59.9587959,97.5089714 C59.9587959,97.5089714 64.2369895,94.4499379 69.9781059,93.3895923 C73.3180834,92.7727208 107.829352,94.9115543 112.775881,93.3895923 C117.207217,92.0261461 122.120142,91.4341328 130.747263,87.2249824 C139.374384,83.0158321 148.109507,82.9823913 148.109507,82.9823913 C148.109507,82.9823913 151.450843,83.2252644 155.47616,83.9567401 C157.876197,84.3928718 160.983804,86.864986 162.16688,87.2249824 C163.243691,87.5526436 170.697928,91.8051551 178.283121,95.4418099 C185.596611,98.9481984 193.230055,100.250202 194.397547,100.600498 C198.215312,101.745986 202.022645,101.859178 202.693156,102.070829 C204.220039,102.552801 210.326658,102.507199 215.51211,102.070829 C229.228596,100.91655 246.818842,97.5089714 246.818842,97.5089714 C246.818842,97.5089714 255.558173,95.8022565 259.738581,95.4418099 C263.549719,95.1132027 270.793482,95.44181 270.793482,95.44181 C270.793482,95.44181 284.035882,96.5821979 287.607966,97.5089733 C291.486935,98.5153699 298.649494,100.720334 302.723231,102.070829 C310.834459,104.759804 321.167841,102.070829 321.167841,102.070829 C321.167841,102.070829 330.838435,100.539868 339.868952,97.508971 C345.898331,95.4853411 360.214844,91.4341328 360.214844,91.4341328 C360.214844,91.4341328 366.059385,88.589726 376.350733,85.6327909 C378.565561,84.9964213 389.887449,82.5816098 400.514521,82.9823913 C410.169352,83.3465063 419.054999,86.3779691 423.743494,88.6392724 C427.660127,90.5282993 434.934917,93.8107468 441.641596,95.4418102 C451.800145,97.9123677 456.505671,97.5089712 462.303583,97.5089712 C468.101496,97.5089712 475.134759,93.4463621 480.86883,92.1953144 C483.505775,91.6199913 487.088382,90.4858736 490.835535,90.3902298 C493.893856,90.312168 498.007468,90.1485781 499.663325,90.3902298 C504.068973,91.0331793 513.497448,93.16686 514.990107,93.3895925 C519.486831,94.0605875 541.132807,102.07083 541.132807,102.07083 L541.132812,167.179794 L0.454157184,167.179794 L0.454157184,108.464835 C0.454157184,108.464835 27.1299625,111.407632 37.7773002,108.464834 Z" id="Path-6" sketch:type="MSShapeGroup"></path>
            </g>
        </g>
    </g>
</svg>